<svg width="340" height="165" viewBox="0 0 340 165" fill="none" xmlns="http://www.w3.org/2000/svg">
<rect width="343.118" height="192.71" transform="translate(0 -0.410156)" fill="#818CFF"/>
<path d="M129.982 81.2408C131.232 81.4735 132.26 82.0976 133.065 83.1131C133.87 84.1287 134.273 85.2923 134.273 86.604C134.273 87.7887 133.976 88.836 133.383 89.7457C132.811 90.6343 131.974 91.3324 130.872 91.8402C129.77 92.3479 128.467 92.6018 126.963 92.6018H117.397V70.451H126.55C128.054 70.451 129.347 70.6943 130.427 71.1809C131.529 71.6675 132.355 72.3445 132.906 73.2119C133.478 74.0793 133.764 75.0631 133.764 76.1633C133.764 77.4538 133.414 78.5328 132.715 79.4002C132.037 80.2676 131.126 80.8811 129.982 81.2408ZM121.847 79.5906H125.914C126.974 79.5906 127.789 79.3579 128.362 78.8924C128.934 78.4058 129.22 77.7183 129.22 76.8297C129.22 75.9411 128.934 75.2535 128.362 74.7669C127.789 74.2803 126.974 74.037 125.914 74.037H121.847V79.5906ZM126.328 88.9841C127.408 88.9841 128.245 88.7302 128.838 88.2224C129.453 87.7147 129.76 86.9954 129.76 86.0645C129.76 85.1124 129.442 84.372 128.806 83.843C128.171 83.293 127.313 83.0179 126.232 83.0179H121.847V88.9841H126.328Z" fill="white"/>
<path d="M154.185 83.4305C154.185 84.0652 154.143 84.6364 154.058 85.1442H141.187C141.293 86.4136 141.738 87.4079 142.522 88.1272C143.306 88.8465 144.27 89.2062 145.414 89.2062C147.066 89.2062 148.242 88.4975 148.941 87.08H153.74C153.232 88.7725 152.257 90.1688 150.816 91.269C149.376 92.3479 147.607 92.8874 145.509 92.8874C143.814 92.8874 142.289 92.5172 140.933 91.7767C139.598 91.0151 138.549 89.9467 137.787 88.5715C137.045 87.1963 136.674 85.6096 136.674 83.8113C136.674 81.9919 137.045 80.3945 137.787 79.0194C138.528 77.6442 139.566 76.5864 140.901 75.8459C142.236 75.1054 143.772 74.7352 145.509 74.7352C147.183 74.7352 148.677 75.0949 149.99 75.8142C151.325 76.5335 152.352 77.5596 153.073 78.8924C153.814 80.2041 154.185 81.7168 154.185 83.4305ZM149.577 82.1611C149.556 81.0187 149.143 80.1089 148.338 79.4319C147.533 78.7338 146.547 78.3847 145.382 78.3847C144.28 78.3847 143.348 78.7232 142.585 79.4002C141.844 80.056 141.388 80.9763 141.219 82.1611H149.577Z" fill="white"/>
<path d="M164.17 92.8874C162.729 92.8874 161.437 92.6335 160.293 92.1258C159.149 91.5969 158.238 90.8881 157.56 89.9996C156.903 89.111 156.543 88.1272 156.479 87.0482H160.96C161.045 87.7253 161.373 88.2859 161.945 88.7302C162.539 89.1745 163.269 89.3966 164.138 89.3966C164.986 89.3966 165.642 89.2274 166.108 88.8889C166.596 88.5504 166.839 88.1166 166.839 87.5877C166.839 87.0165 166.543 86.5934 165.95 86.3183C165.378 86.0222 164.456 85.7048 163.185 85.3663C161.871 85.049 160.791 84.721 159.943 84.3825C159.117 84.044 158.397 83.5257 157.782 82.8275C157.189 82.1294 156.892 81.1879 156.892 80.0032C156.892 79.03 157.168 78.1414 157.719 77.3374C158.291 76.5335 159.096 75.8988 160.134 75.4334C161.193 74.9679 162.433 74.7352 163.852 74.7352C165.95 74.7352 167.623 75.2641 168.873 76.3219C170.123 77.3586 170.812 78.7655 170.939 80.5426H166.681C166.617 79.8445 166.32 79.2944 165.791 78.8924C165.282 78.4693 164.594 78.2577 163.725 78.2577C162.92 78.2577 162.295 78.4058 161.85 78.702C161.426 78.9982 161.214 79.4108 161.214 79.9397C161.214 80.5321 161.511 80.9869 162.104 81.3043C162.697 81.6005 163.619 81.9072 164.869 82.2246C166.14 82.5419 167.189 82.8698 168.015 83.2084C168.842 83.5469 169.551 84.0758 170.145 84.7951C170.759 85.4932 171.077 86.4241 171.098 87.5877C171.098 88.6032 170.812 89.513 170.24 90.3169C169.689 91.1209 168.884 91.7556 167.825 92.221C166.786 92.6653 165.568 92.8874 164.17 92.8874Z" fill="white"/>
<path d="M179.93 78.6703V87.1752C179.93 87.7676 180.068 88.2013 180.343 88.4763C180.64 88.7302 181.127 88.8571 181.805 88.8571H183.871V92.6018H181.074C177.324 92.6018 175.449 90.7824 175.449 87.1434V78.6703H173.352V75.0208H175.449V70.6732H179.93V75.0208H183.871V78.6703H179.93Z" fill="white"/>
<path d="M224.294 70.451L218.097 92.6018H212.853L208.69 76.8297L204.336 92.6018L199.125 92.6335L193.15 70.451H197.917L201.826 87.6512L206.339 70.451H211.296L215.555 87.556L219.495 70.451H224.294Z" fill="white"/>
<path d="M226.055 83.7478C226.055 81.9707 226.405 80.3945 227.104 79.0194C227.824 77.6442 228.788 76.5864 229.996 75.8459C231.225 75.1054 232.591 74.7352 234.095 74.7352C235.409 74.7352 236.553 74.9997 237.528 75.5286C238.523 76.0575 239.318 76.7239 239.911 77.5278V75.0208H244.392V92.6018H239.911V90.0313C239.339 90.8564 238.545 91.544 237.528 92.0941C236.532 92.623 235.377 92.8874 234.064 92.8874C232.581 92.8874 231.225 92.5066 229.996 91.745C228.788 90.9833 227.824 89.9149 227.104 88.5398C226.405 87.1434 226.055 85.5461 226.055 83.7478ZM239.911 83.8113C239.911 82.7323 239.699 81.812 239.276 81.0504C238.852 80.2676 238.28 79.6752 237.559 79.2733C236.839 78.8501 236.066 78.6386 235.24 78.6386C234.413 78.6386 233.651 78.8395 232.951 79.2415C232.252 79.6435 231.68 80.2359 231.235 81.0187C230.812 81.7803 230.6 82.69 230.6 83.7478C230.6 84.8057 230.812 85.7365 231.235 86.5405C231.68 87.3233 232.252 87.9262 232.951 88.3494C233.672 88.7725 234.434 88.9841 235.24 88.9841C236.066 88.9841 236.839 88.7831 237.559 88.3811C238.28 87.958 238.852 87.3656 239.276 86.604C239.699 85.8212 239.911 84.8903 239.911 83.8113Z" fill="white"/>
<path d="M253.187 69.1182V92.6018H248.738V69.1182H253.187Z" fill="white"/>
<path d="M262.032 69.1182V92.6018H257.583V69.1182H262.032Z" fill="white"/>
<path d="M282.794 83.4305C282.794 84.0652 282.752 84.6364 282.667 85.1442H269.796C269.902 86.4136 270.347 87.4079 271.131 88.1272C271.915 88.8465 272.879 89.2062 274.023 89.2062C275.675 89.2062 276.851 88.4975 277.55 87.08H282.349C281.841 88.7725 280.866 90.1688 279.425 91.269C277.985 92.3479 276.216 92.8874 274.118 92.8874C272.423 92.8874 270.898 92.5172 269.542 91.7767C268.207 91.0151 267.158 89.9467 266.396 88.5715C265.654 87.1963 265.283 85.6096 265.283 83.8113C265.283 81.9919 265.654 80.3945 266.396 79.0194C267.137 77.6442 268.175 76.5864 269.51 75.8459C270.845 75.1054 272.381 74.7352 274.118 74.7352C275.792 74.7352 277.286 75.0949 278.599 75.8142C279.934 76.5335 280.961 77.5596 281.682 78.8924C282.423 80.2041 282.794 81.7168 282.794 83.4305ZM278.186 82.1611C278.165 81.0187 277.752 80.1089 276.947 79.4319C276.141 78.7338 275.156 78.3847 273.991 78.3847C272.889 78.3847 271.957 78.7232 271.194 79.4002C270.453 80.056 269.997 80.9763 269.828 82.1611H278.186Z" fill="white"/>
<path d="M291.222 78.6703V87.1752C291.222 87.7676 291.359 88.2013 291.635 88.4763C291.931 88.7302 292.419 88.8571 293.097 88.8571H295.162V92.6018H292.366C288.616 92.6018 286.741 90.7824 286.741 87.1434V78.6703H284.643V75.0208H286.741V70.6732H291.222V75.0208H295.162V78.6703H291.222Z" fill="white"/>
<g filter="url(#filter0_d_316_1235)">
<path d="M48.8826 92.9382C48.8826 85.8854 48.8826 82.359 50.2808 79.4575C50.9092 78.1534 51.7338 76.9609 52.7237 75.9244C54.926 73.6184 58.1512 72.4803 64.6015 70.2041L77.2991 65.7233C86.5413 62.4619 91.1624 60.8312 94.6096 62.6532C95.4196 63.0813 96.1633 63.632 96.8162 64.2872C99.5951 67.0758 99.5951 72.1285 99.5951 82.234C99.5951 89.2312 99.5951 92.7298 98.0351 95.5253C97.6569 96.203 97.2159 96.8409 96.7181 97.4301C94.6649 99.8603 91.4652 100.989 85.0657 103.248L69.9889 108.568C61.8516 111.44 57.783 112.875 54.6458 111.583C50.6259 109.927 48.8826 106.079 48.8826 102.766C48.8826 100.53 48.8826 96.4083 48.8826 92.9382Z" fill="url(#paint0_linear_316_1235)"/>
<path fill-rule="evenodd" clip-rule="evenodd" d="M48.8826 76.2986C48.8826 70.6498 48.8826 66.0186 49.79 63.6082C50.5914 61.4794 51.8922 59.5905 53.5751 58.1118C55.4806 56.4375 58.0603 55.5158 63.2199 53.6724L64.9984 53.0369C70.9899 50.8962 73.9857 49.8259 76.3907 50.3072C78.9935 50.8281 81.2498 52.4922 82.5749 54.8683C83.7994 57.064 83.7994 62.0646 83.7994 68.6243C83.7994 73.8 83.7994 76.3879 83.0353 78.6191C82.2047 81.0447 80.7336 83.1808 78.7892 84.7849C77.0006 86.2605 74.6369 87.105 69.9094 88.794C69.9094 88.794 61.7685 91.6723 56.6973 93.5063C51.626 95.3402 48.8826 99.019 48.8826 102.845V76.2986Z" fill="white"/>
</g>
<defs>
<filter id="filter0_d_316_1235" x="46.0155" y="50.1934" width="56.4466" height="67.6014" filterUnits="userSpaceOnUse" color-interpolation-filters="sRGB">
<feFlood flood-opacity="0" result="BackgroundImageFix"/>
<feColorMatrix in="SourceAlpha" type="matrix" values="0 0 0 0 0 0 0 0 0 0 0 0 0 0 0 0 0 0 127 0" result="hardAlpha"/>
<feOffset dy="2.86709"/>
<feGaussianBlur stdDeviation="1.43354"/>
<feComposite in2="hardAlpha" operator="out"/>
<feColorMatrix type="matrix" values="0 0 0 0 0 0 0 0 0 0 0 0 0 0 0 0 0 0 0.25 0"/>
<feBlend mode="normal" in2="BackgroundImageFix" result="effect1_dropShadow_316_1235"/>
<feBlend mode="normal" in="SourceGraphic" in2="effect1_dropShadow_316_1235" result="shape"/>
</filter>
<linearGradient id="paint0_linear_316_1235" x1="97.8077" y1="94.8941" x2="50.1698" y2="68.4427" gradientUnits="userSpaceOnUse">
<stop stop-color="white"/>
<stop offset="1" stop-color="white" stop-opacity="0.12"/>
</linearGradient>
</defs>
</svg>
