<svg width="81" height="65" viewBox="0 0 81 65" fill="none" xmlns="http://www.w3.org/2000/svg">
<g opacity="0.37">
<path d="M2.5485 20.6759C2.5485 20.6759 10.8836 29.5974 21.7545 37.6894C32.6232 45.781 44.6158 55.9449 44.6158 55.9449L46.666 58.3927L53.7178 64.3638L57.9158 60.2081L6.44851 17.5653L2.54889 20.6737L2.5485 20.6759Z" fill="url(#paint0_radial_1114_890)"/>
<path d="M19.8411 6.34489C19.8411 6.34489 27.8344 14.9003 38.2562 22.658C48.6781 30.4158 60.1769 40.164 60.1769 40.164L67.3584 45.9404L70.7576 49.269L75.2104 45.9887L23.5813 3.36341L19.8411 6.34489Z" fill="url(#paint1_radial_1114_890)"/>
<path d="M32.8931 2.72002C32.8931 2.72002 40.0785 10.4119 49.4489 17.3869C58.8193 24.3618 69.1552 33.1249 69.1552 33.1249L70.9224 35.235L77.2821 40.0542L80.6199 36.798L36.2531 0.039359L32.891 2.71964L32.8931 2.72002Z" fill="url(#paint2_radial_1114_890)"/>
<path d="M37.0602 6.88937L43.3787 11.1897L44.576 11.554L46.6037 13.6486L48.2951 14.9423L50.1249 15.1222L50.7623 15.9284L52.2499 16.3448L53.1578 17.6444L55.2571 17.3301L55.5133 18.9084L56.4959 20.1236L58.6758 20.3665L59.0518 21.6216L60.6401 21.8092L60.4422 22.9101L63.53 25.789L63.6333 26.5504L64.0957 27.3251L65.342 27.7471L65.6321 29.4805L68.5531 32.6252L64.6983 30.0042L63.9456 29.1773L63.3222 28.9674L63.2506 28.3607C63.2506 28.3607 62.2854 28.3852 62.1188 28.3063C61.9523 28.2275 61.0075 27.4638 61.0075 27.4638L60.1316 27.6533L58.3421 26.2442L57.9801 25.5853L57.0725 25.6201L56.8429 24.8872L54.9561 24.3501L53.9107 23.8153L53.8475 23.1612L51.9008 22.2464L50.5678 20.2589L47.21 17.9629L46.486 16.6452L45.504 16.4198L44.5129 15.252C44.5129 15.252 42.9679 14.4806 43.1519 14.4625C43.3354 14.4466 43.7377 13.8762 43.7377 13.8762L42.7642 13.6033L41.8857 12.2868L41.0002 11.525L40.7296 10.9582L39.9069 10.2387L37.0619 6.89191L37.0602 6.88937Z" fill="black"/>
<path d="M37.0602 6.88937L43.3787 11.1897L44.576 11.554L46.6037 13.6486L48.2951 14.9423L50.1249 15.1222L50.7623 15.9284L52.2499 16.3448L53.1578 17.6444L55.2571 17.3301L55.5133 18.9084L56.4959 20.1236L58.6758 20.3665L59.0518 21.6216L60.6401 21.8092L60.4422 22.9101L63.53 25.789L63.6333 26.5504L64.0957 27.3251L65.342 27.7471L65.6321 29.4805L68.5531 32.6252L64.6983 30.0042L63.9456 29.1773L63.3222 28.9674L63.2506 28.3607C63.2506 28.3607 62.2854 28.3852 62.1188 28.3063C61.9523 28.2275 61.0075 27.4638 61.0075 27.4638L60.1316 27.6533L58.3421 26.2442L57.9801 25.5853L57.0725 25.6201L56.8429 24.8872L54.9561 24.3501L53.9107 23.8153L53.8475 23.1612L51.9008 22.2464L50.5678 20.2589L47.21 17.9629L46.486 16.6452L45.504 16.4198L44.5129 15.252C44.5129 15.252 42.9679 14.4806 43.1519 14.4625C43.3354 14.4466 43.7377 13.8762 43.7377 13.8762L42.7642 13.6033L41.8857 12.2868L41.0002 11.525L40.7296 10.9582L39.9069 10.2387L37.0619 6.89191L37.0602 6.88937Z" fill="url(#paint3_linear_1114_890)"/>
<path d="M22.4848 9.02173L31.6476 18.9416L32.5894 19.5134L33.0859 20.3432L33.7977 20.4044L34.8591 21.6716L36.3358 22.4062L36.7132 23.8862L38.9944 24.6321L39.283 26.1651L42.156 28.0936L43.6354 28.3596L44.4436 29.2454L44.5915 30.2127L46.6246 32.3261L49.3081 33.0776L50.3411 34.9445L52.7997 36.9343L53.8906 37.1304L55.0409 38.3445L55.6874 38.3273L56.3613 39.0533L58.0608 39.897L59.7719 40.676L59.4991 41.2986L61.048 41.6438L62.2331 42.6641L63.2235 42.9777L64.239 44.0343L64.6881 43.7792L67.3584 45.9404L64.6644 42.5629L64.458 41.9209L63.0555 41.6688L62.708 40.4633L61.702 39.3418L60.7137 39.0285L60.966 38.0664L59.0807 36.9202L57.7429 35.401L56.4993 34.706L55.9745 33.6043L54.6051 33.1558L53.9043 31.6844L52.3554 31.3392L51.3078 30.0078L50.3722 28.4942L47.5972 28.2645L46.8527 26.5828L44.7178 25.93L43.7586 24.5478L41.9502 23.4155L41.8728 22.0561L40.1096 22.0082L39.6969 20.7243L38.5824 20.6596L38.3443 19.7406L36.5833 19.6931L35.7915 18.2743L34.2363 17.5233L33.5003 16.2479L32.3488 16.3767L30.5805 14.58L22.4848 9.02173Z" fill="black"/>
<path d="M22.4848 9.02173L31.6476 18.9416L32.5894 19.5134L33.0859 20.3432L33.7977 20.4044L34.8591 21.6716L36.3358 22.4062L36.7132 23.8862L38.9944 24.6321L39.283 26.1651L42.156 28.0936L43.6354 28.3596L44.4436 29.2454L44.5915 30.2127L46.6246 32.3261L49.3081 33.0776L50.3411 34.9445L52.7997 36.9343L53.8906 37.1304L55.0409 38.3445L55.6874 38.3273L56.3613 39.0533L58.0608 39.897L59.7719 40.676L59.4991 41.2986L61.048 41.6438L62.2331 42.6641L63.2235 42.9777L64.239 44.0343L64.6881 43.7792L67.3584 45.9404L64.6644 42.5629L64.458 41.9209L63.0555 41.6688L62.708 40.4633L61.702 39.3418L60.7137 39.0285L60.966 38.0664L59.0807 36.9202L57.7429 35.401L56.4993 34.706L55.9745 33.6043L54.6051 33.1558L53.9043 31.6844L52.3554 31.3392L51.3078 30.0078L50.3722 28.4942L47.5972 28.2645L46.8527 26.5828L44.7178 25.93L43.7586 24.5478L41.9502 23.4155L41.8728 22.0561L40.1096 22.0082L39.6969 20.7243L38.5824 20.6596L38.3443 19.7406L36.5833 19.6931L35.7915 18.2743L34.2363 17.5233L33.5003 16.2479L32.3488 16.3767L30.5805 14.58L22.4848 9.02173Z" fill="url(#paint4_linear_1114_890)"/>
<path d="M50.0328 61.1906L44.7383 56.1092L44.0946 54.6147L41.0017 51.1877L40.0662 50.6059L39.5811 49.7737L38.8683 49.7057L37.8263 48.4287L36.357 47.6775L35.9995 46.1967L33.729 45.4282L33.4604 43.8944L30.6142 41.9395L29.1354 41.6581L28.3394 40.7656L28.2051 39.7963L26.1997 37.6634L23.5251 36.8869L22.518 35.0112L20.0853 32.9995L18.9964 32.7926L17.8616 31.5656L17.2137 31.5782L16.5499 30.8451L14.8599 29.9853L13.1605 29.1906L13.4414 28.5717L11.8978 28.2097L10.7256 27.1784L9.73894 26.8565L8.73603 25.7911L8.2834 26.0411L5.64164 23.8561L8.45788 28.5031L8.6553 29.1457L10.0573 29.4133L10.3869 30.6201L11.3778 31.7522L12.3645 32.0741L12.0972 33.0335L13.9684 34.1971L15.2843 35.728L16.5192 36.4348L17.03 37.5407L18.3924 38.0035L19.0745 39.4804L20.6186 39.8403L21.649 41.1819L22.5634 42.7028L25.3381 42.9592L26.0597 44.6456L28.1885 45.3196L29.1283 46.7117L30.9226 47.8615L30.9804 49.2195L32.7426 49.285L33.1392 50.5728L34.2539 50.6486L34.4788 51.5674L36.241 51.6329L37.0137 53.0594L38.5595 53.8265L39.2789 55.1078L40.4306 54.9902L42.1763 56.8028L50.0328 61.1906Z" fill="black"/>
<path d="M50.0328 61.1906L44.7383 56.1092L44.0946 54.6147L41.0017 51.1877L40.0662 50.6059L39.5811 49.7737L38.8683 49.7057L37.8263 48.4287L36.357 47.6775L35.9995 46.1967L33.729 45.4282L33.4604 43.8944L30.6142 41.9395L29.1354 41.6581L28.3394 40.7656L28.2051 39.7963L26.1997 37.6634L23.5251 36.8869L22.518 35.0112L20.0853 32.9995L18.9964 32.7926L17.8616 31.5656L17.2137 31.5782L16.5499 30.8451L14.8599 29.9853L13.1605 29.1906L13.4414 28.5717L11.8978 28.2097L10.7256 27.1784L9.73894 26.8565L8.73603 25.7911L8.2834 26.0411L5.64164 23.8561L8.45788 28.5031L8.6553 29.1457L10.0573 29.4133L10.3869 30.6201L11.3778 31.7522L12.3645 32.0741L12.0972 33.0335L13.9684 34.1971L15.2843 35.728L16.5192 36.4348L17.03 37.5407L18.3924 38.0035L19.0745 39.4804L20.6186 39.8403L21.649 41.1819L22.5634 42.7028L25.3381 42.9592L26.0597 44.6456L28.1885 45.3196L29.1283 46.7117L30.9226 47.8615L30.9804 49.2195L32.7426 49.285L33.1392 50.5728L34.2539 50.6486L34.4788 51.5674L36.241 51.6329L37.0137 53.0594L38.5595 53.8265L39.2789 55.1078L40.4306 54.9902L42.1763 56.8028L50.0328 61.1906Z" fill="url(#paint5_linear_1114_890)"/>
<path d="M3.62383 7.82849L14.9593 16.4132L16.2172 17.1752L16.9071 18.1065L18.819 18.8105L20.2812 20.2386L21.5856 20.7422L23.8556 23.0338L25.7257 23.37L26.8498 24.2881L27.9208 24.3005L28.4856 25.9276L31.9466 28.1643L32.6654 29.5477L34.4171 29.9538L34.6911 30.8081L36.6926 32.9625L39.7214 33.865L41.3547 36.1312L43.8435 37.2057L46.3022 40.2496L49.0353 42.3554L49.0085 43.6938L51.0828 44.696L52.57 44.7832L52.9524 46.8245L54.8041 47.8757L56.2419 50.0155L58.1718 50.6315L58.7211 52.3448L59.8653 52.5505L61.087 54.1155L62.9365 55.1663L65.5914 59.4974L56.3921 53.3605L54.9116 52.6474L54.7873 51.5487L52.8282 51.1076L51.4864 49.6099L49.9281 49.3298L48.2433 47.9506L47.1104 46.4927L45.7123 46.5104L44.7312 44.8085L42.8189 44.1067L40.9786 41.8033L38.8525 41.6902L38.1962 39.8243L36.6293 39.1379L34.4773 36.7785L32.5386 35.6228L32.0291 34.2769L29.9615 32.6488L28.0739 32.3984L27.1589 31.5179L27.2753 30.2823L24.6906 29.7287L23.5736 28.1825L21.2768 25.439L19.4005 23.9365L17.5618 23.4258L17.4577 21.6147L15.5195 20.7503L14.1319 19.0665L11.9015 16.8487L11.6688 15.7527L10.6962 15.6468L3.62383 7.82849Z" fill="black"/>
<path d="M3.62383 7.82849L14.9593 16.4132L16.2172 17.1752L16.9071 18.1065L18.819 18.8105L20.2812 20.2386L21.5856 20.7422L23.8556 23.0338L25.7257 23.37L26.8498 24.2881L27.9208 24.3005L28.4856 25.9276L31.9466 28.1643L32.6654 29.5477L34.4171 29.9538L34.6911 30.8081L36.6926 32.9625L39.7214 33.865L41.3547 36.1312L43.8435 37.2057L46.3022 40.2496L49.0353 42.3554L49.0085 43.6938L51.0828 44.696L52.57 44.7832L52.9524 46.8245L54.8041 47.8757L56.2419 50.0155L58.1718 50.6315L58.7211 52.3448L59.8653 52.5505L61.087 54.1155L62.9365 55.1663L65.5914 59.4974L56.3921 53.3605L54.9116 52.6474L54.7873 51.5487L52.8282 51.1076L51.4864 49.6099L49.9281 49.3298L48.2433 47.9506L47.1104 46.4927L45.7123 46.5104L44.7312 44.8085L42.8189 44.1067L40.9786 41.8033L38.8525 41.6902L38.1962 39.8243L36.6293 39.1379L34.4773 36.7785L32.5386 35.6228L32.0291 34.2769L29.9615 32.6488L28.0739 32.3984L27.1589 31.5179L27.2753 30.2823L24.6906 29.7287L23.5736 28.1825L21.2768 25.439L19.4005 23.9365L17.5618 23.4258L17.4577 21.6147L15.5195 20.7503L14.1319 19.0665L11.9015 16.8487L11.6688 15.7527L10.6962 15.6468L3.62383 7.82849Z" fill="url(#paint6_linear_1114_890)"/>
<path d="M41.7733 23.6394L41.7801 23.7607L41.9145 23.8471L43.655 24.9406L43.5117 24.7325L41.7733 23.6394Z" fill="url(#paint7_linear_1114_890)"/>
<path d="M47.5162 28.7392L47.7357 28.7564L50.3053 28.9648L50.1734 28.7543L47.5864 28.545L47.4236 28.5313L47.436 28.5602L47.5162 28.7392Z" fill="url(#paint8_linear_1114_890)"/>
<path d="M38.4862 21.1093L38.7303 21.1243L39.5253 21.176L39.4591 20.9684L38.581 20.9129L38.4348 20.9044L38.4362 20.9091L38.4862 21.1093Z" fill="url(#paint9_linear_1114_890)"/>
<path d="M36.4394 19.9297L36.4738 19.9959L36.5534 20.1414L36.742 20.1464L38.1596 20.1922L38.1069 19.9826L36.4394 19.9297Z" fill="url(#paint10_linear_1114_890)"/>
<path d="M44.6213 26.1973L44.5002 26.16L44.6452 26.3706L44.7706 26.4087L46.6838 26.995L46.5974 26.8016L44.6213 26.1973Z" fill="url(#paint11_linear_1114_890)"/>
<path d="M40.018 22.481L40.2701 22.4885L41.5739 22.5294L41.563 22.3207L40.1186 22.2767L39.9521 22.2713L39.9535 22.276L40.018 22.481Z" fill="url(#paint12_linear_1114_890)"/>
<path d="M34.1988 17.879L34.2739 17.9148L35.6908 18.6142L35.5878 18.4267L34.1246 17.7034L34.0924 17.6864L34.1658 17.8175L34.1988 17.879Z" fill="url(#paint13_linear_1114_890)"/>
<path d="M46.1063 40.4323L46.077 40.4115L46.0556 40.3832L43.6373 37.4088L41.2232 36.3722L41.1353 36.3341L41.0821 36.2623L39.5109 34.0918L36.5982 33.2302L36.4977 33.201L36.4313 33.129L34.5181 31.0594L34.5235 31.0782L34.542 31.1349L34.5858 31.185L36.5806 33.3405L36.647 33.4124L36.7472 33.4438L39.6603 34.3032L41.2314 36.4737L41.2846 36.5456L41.3725 36.5836L43.7866 37.6202L46.2049 40.5946L46.2263 40.6229L46.2556 40.6437L48.7387 42.5467L48.7404 42.4514L46.1063 40.4323Z" fill="url(#paint14_linear_1114_890)"/>
<path d="M34.1529 30.1732L32.5986 29.8093L32.4841 29.7842L32.5198 29.8551L32.5868 29.9851L32.7475 30.0228L34.2133 30.3642L34.1529 30.1732Z" fill="url(#paint15_linear_1114_890)"/>
<path d="M56.4342 35.068L56.5086 35.108L57.7226 35.771L59.0473 37.2411L59.0707 37.2698L59.1026 37.2889L60.7074 38.2423L60.7332 38.1357L58.9511 37.0771L58.9214 37.0584L58.8958 37.0293L57.5712 35.5592L56.3592 34.8966L56.3472 34.89L56.3971 34.9923L56.4342 35.068Z" fill="url(#paint16_linear_1114_890)"/>
<path d="M64.1036 27.6735L64.1789 27.6959L65.2164 28.0292L65.1814 27.8561L64.0296 27.4845L63.9773 27.4684L64.0628 27.6061L64.1036 27.6735Z" fill="url(#paint17_linear_1114_890)"/>
<path d="M58.9531 22.0731L59.1756 22.0975L60.2622 22.2194L60.2945 22.0273L59.0263 21.8861L58.8903 21.8705L58.8944 21.8846L58.9531 22.0731Z" fill="url(#paint18_linear_1114_890)"/>
<path d="M60.6351 39.3435L60.8045 39.3939L61.7468 39.6812L62.5835 40.5921L62.5592 40.5188L61.5974 39.4697L60.674 39.1881L60.6729 39.1946L60.6351 39.3435Z" fill="url(#paint19_linear_1114_890)"/>
<path d="M46.5587 14.0097L46.5781 14.0243L48.2535 15.3329L48.3247 15.3901L48.4262 15.4017L50.1023 15.5785L50.6481 16.2815L50.7126 16.3642L50.8259 16.3957L52.1823 16.7819L52.0351 16.5708L50.6766 16.1843L50.5633 16.1528L50.4988 16.0701L49.953 15.3671L48.2769 15.1903L48.1754 15.1787L48.1042 15.1214L46.4288 13.8129L46.4094 13.7983L46.3985 13.7852L44.4443 11.7104L43.3212 11.3506L43.2835 11.3394L43.2581 11.3215C42.2169 10.5917 41.1836 9.85446 40.1508 9.11506L38.6024 8.00722C38.5339 7.95932 38.4657 7.90926 38.3976 7.85921C38.0024 7.60582 37.6068 7.35457 37.2112 7.10333C37.726 7.47607 38.2357 7.85236 38.7517 8.21864L40.3001 9.32647C41.3308 10.0655 42.3662 10.8031 43.4074 11.5329L43.4328 11.5508L43.4705 11.562L44.5936 11.9218L46.5478 13.9966L46.5587 14.0097Z" fill="url(#paint20_linear_1114_890)"/>
<path d="M53.1475 18.1674L53.381 18.1315L55.0105 17.8929L54.9724 17.6637L53.0007 17.9542L53.1475 18.1674Z" fill="url(#paint21_linear_1114_890)"/>
<path d="M55.3351 19.1766L55.3396 19.213L55.3887 19.2708L56.376 20.4845L56.466 20.5964L58.4826 20.8165L58.4198 20.614L56.3167 20.3849L56.2266 20.2731L55.3351 19.1766Z" fill="url(#paint22_linear_1114_890)"/>
<path d="M63.0967 41.9787L63.1843 41.9944L64.4409 42.2003L64.373 42.0013L63.035 41.783L63.0711 41.9007L63.0967 41.9787Z" fill="url(#paint23_linear_1114_890)"/>
<path d="M58.7432 52.6756L58.8478 52.6945L59.9324 52.8761L61.1385 54.3805L61.1546 54.4012L61.1748 54.4115L62.9972 55.4173C62.956 55.3521 62.9131 55.2844 62.8698 55.2188L61.0233 54.1997L61.0031 54.1894L60.987 54.1687L59.781 52.6643L58.6963 52.4826L58.6771 52.4792L58.7127 52.5879L58.7428 52.6778L58.7432 52.6756Z" fill="url(#paint24_linear_1114_890)"/>
<path d="M48.8782 43.9039L48.87 43.9002L48.867 44.0397L49.0275 44.1153L51.108 45.1075L51.1668 45.1359L51.2302 45.1384L52.3897 45.1978L52.3473 44.9923L51.0809 44.9269L51.0179 44.9223L50.959 44.8939L48.8782 43.9039Z" fill="url(#paint25_linear_1114_890)"/>
<path d="M56.2609 50.3636L56.3319 50.3853L58.0827 50.9313L58.0211 50.7467L56.1826 50.1739L56.1158 50.153L56.2609 50.3636Z" fill="url(#paint26_linear_1114_890)"/>
<path d="M52.8824 47.1522L54.7811 48.2118L54.64 48.0041L52.8556 47.0073L52.8824 47.1522Z" fill="url(#paint27_linear_1114_890)"/>
<path d="M47.3234 58.6955L44.6976 56.262L44.7419 56.3589L44.7547 56.3857L44.7755 56.405L47.4748 58.9073C48.3736 59.7427 49.1285 60.3609 50.0349 61.191C49.729 60.8825 49.5694 60.7893 49.2635 60.4808C48.6166 59.8864 47.9673 59.2938 47.3255 58.6958L47.3234 58.6955Z" fill="url(#paint28_linear_1114_890)"/>
<path d="M35.7347 46.3826L33.6241 45.6807L33.5577 45.6577L33.5591 45.6623L33.5885 45.83L33.7756 45.8925L35.7779 46.5593L35.7347 46.3826Z" fill="url(#paint29_linear_1114_890)"/>
<path d="M52.294 31.595L52.171 31.5685L52.0992 31.4777L51.1158 30.2424L51.1719 30.3348L51.1828 30.3479L51.1915 30.3605L52.2485 31.6892L52.3224 31.7803L52.4433 31.8065L53.7832 32.1007L53.6851 31.8985L52.294 31.595Z" fill="url(#paint30_linear_1114_890)"/>
<path d="M43.9345 54.6838L40.8392 51.332L39.9232 50.7759L39.9077 50.7642L39.991 50.9015L40.0209 50.9558L40.0747 50.9877L40.9885 51.5434L43.9767 54.7803L43.9345 54.6838Z" fill="url(#paint31_linear_1114_890)"/>
<path d="M60.2928 23.1278L60.2812 23.1925L60.3798 23.2814L63.3189 25.9579L63.3059 25.8711L60.2928 23.1278Z" fill="url(#paint32_linear_1114_890)"/>
<path d="M54.5147 33.3886L54.442 33.3644L54.4822 33.4472L54.5352 33.5568L54.664 33.6L55.8557 33.9832L55.7607 33.7883L54.5147 33.3886Z" fill="url(#paint33_linear_1114_890)"/>
<path d="M30.6002 14.8993L32.3367 16.7015L32.4165 16.7848L33.4921 16.6734L33.3721 16.4584L32.3934 16.5582L32.2676 16.5712L32.1878 16.4879L30.4513 14.6858C29.1158 13.7541 27.7963 12.8075 26.4691 11.8662C25.7597 11.3628 25.0506 10.8573 24.3415 10.3518C23.7743 9.97628 23.2046 9.60256 22.6345 9.231C23.9568 10.187 25.2874 11.1334 26.6184 12.0776C27.9456 13.0189 29.2651 13.9655 30.6006 14.8972L30.6002 14.8993Z" fill="url(#paint34_linear_1114_890)"/>
<path d="M27.7716 24.7629L27.6993 24.552L26.8641 24.5398L26.741 24.5377L26.6508 24.4636L25.5969 23.5959L23.8152 23.2712L23.7106 23.2524L23.6416 23.1822L21.4279 20.9206L20.1889 20.4333L20.1332 20.4121L20.0959 20.3743L18.6861 18.9734L16.7663 18.2524L16.7292 18.2013L16.0696 17.2977L14.8557 16.548L14.8458 16.5418L14.838 16.5359C12.9594 15.0952 11.0912 13.6452 9.22347 12.1931L6.42142 10.0171L5.70669 9.45716L3.77916 8.04322L6.57287 10.2289L9.37491 12.4049C11.2406 13.8566 13.1108 15.307 14.9895 16.7477L14.9972 16.7536L15.0071 16.7598L16.2211 17.5095L16.8806 18.4131L16.9177 18.4642L18.8376 19.1852L20.2474 20.5861L20.2846 20.6239L20.3403 20.6451L21.5794 21.1324L23.7931 23.394L23.862 23.4642L23.9666 23.483L25.7484 23.8077L26.8022 24.6754L26.8925 24.7495L27.0155 24.7516L27.7737 24.7633L27.7716 24.7629Z" fill="url(#paint35_linear_1114_890)"/>
<path d="M39.5434 50.1917L39.418 49.9824L38.8558 49.9347L38.7279 49.9228L38.6479 49.8284L37.6311 48.6071L36.2148 47.8921L36.2046 47.8881L36.2133 47.9252L36.2427 48.0439L36.3642 48.1036L37.7805 48.8185L38.7972 50.0398L38.8772 50.1342L39.0051 50.1461L39.5434 50.1917Z" fill="url(#paint36_linear_1114_890)"/>
<path d="M27.8851 39.8967L26.0119 37.8987L23.439 37.1449L23.3385 37.1157L23.3834 37.1972L23.4438 37.3148L23.5883 37.3563L26.1612 38.1102L27.8922 39.9558L27.8851 39.8967Z" fill="url(#paint37_linear_1114_890)"/>
<path d="M33.1581 44.0313L30.4796 42.1978L29.0811 41.9352L28.9509 41.9118L28.8706 41.8196L28.1588 41.0222L28.1653 41.0723L28.226 41.1388L29.1024 42.1236L29.2305 42.1467L30.6285 42.4113L33.1799 44.1553L33.1581 44.0313Z" fill="url(#paint38_linear_1114_890)"/>
<path d="M31.6929 28.3255L28.3225 26.1362L28.3423 26.1976L28.3732 26.2832L28.4597 26.341L31.7807 28.4992L31.6929 28.3255Z" fill="url(#paint39_linear_1114_890)"/>
<path d="M22.2634 35.1523L19.9509 33.2199L18.9503 33.0245L18.8439 33.0031L18.7797 32.9315L17.7447 31.787L17.2349 31.791L17.0979 31.7931L17.0175 31.7008L16.3908 30.9944L14.7709 30.1494L13.1153 29.3559L13.0616 29.4708L13.2217 29.5485L14.9202 30.3609L16.5402 31.2058L17.1669 31.9122L17.2494 32.0049L17.3864 32.0028L17.894 31.9984L18.929 33.143L18.9932 33.2146L19.0996 33.2359L20.1023 33.4317L22.3454 35.3094L22.2634 35.1523Z" fill="url(#paint40_linear_1114_890)"/>
<path d="M13.1878 28.6706L11.8619 28.3478L11.8107 28.3386L11.779 28.3062L10.6504 27.2783L9.70405 26.9525L9.66892 26.9395L9.64854 26.9181L8.78598 25.9669L8.43928 26.167C8.40861 26.1414 8.37755 26.1181 8.34688 26.0925L8.33252 26.0988L8.27645 26.1288L8.23064 26.0894C7.78727 25.7117 7.34467 25.3297 6.90421 24.9481C6.53384 24.6547 6.16598 24.3595 5.79522 24.0683C6.65499 24.8143 7.51476 25.5604 8.38209 26.3012L8.4279 26.3406L8.48397 26.3106L8.87141 26.1045L9.80037 27.1277L9.82076 27.1492L9.85589 27.1621L10.8022 27.4879L11.9309 28.5159L11.9629 28.5461L12.0141 28.5553L13.1157 28.8267L13.1903 28.6689L13.1878 28.6706Z" fill="url(#paint41_linear_1114_890)"/>
<path d="M39.9052 10.2362L40.7279 10.9556L40.9984 11.5224L41.884 12.2843L42.7624 13.6008L43.7359 13.8736C43.7359 13.8736 43.3337 14.444 43.1501 14.46C42.9665 14.4759 44.5111 15.2495 44.5111 15.2495L45.5022 16.4172L46.4842 16.6427L47.2082 17.9604L50.5661 20.2563L51.8991 22.2439L53.8458 23.1587L53.9089 23.8127L54.9543 24.3476L56.8411 24.8847L57.0708 25.6176L57.9784 25.5828L58.3404 26.2416L60.1299 27.6508L61.0058 27.4613C61.0058 27.4613 61.9506 28.2249 62.1171 28.3038C62.2836 28.3826 63.2488 28.3582 63.2488 28.3582L63.3205 28.9649L63.9439 29.1748L64.6966 30.0017L68.5513 32.6227L65.6303 29.4779L65.3403 27.7445L64.0939 27.3226L63.6316 26.5478L63.5282 25.7865L60.4404 22.9075L60.6383 21.8067L59.0501 21.619L58.6741 20.3639L56.4942 20.1211L55.5116 18.9059L55.2554 17.3276L53.156 17.6418L52.2481 16.3422L50.7605 15.9258L50.1231 15.1196L48.2933 14.9397L46.602 13.6461L44.5743 11.5514L43.377 11.1872L37.0584 6.88683L39.9034 10.2337L39.9052 10.2362ZM47.5972 28.2645L46.8527 26.5828L44.7157 25.9296L43.7565 24.5474L41.948 23.4151L41.8706 22.0557L40.1096 22.0082L39.6969 20.7243L38.5828 20.6575L38.3443 19.7406L36.5833 19.6931L35.7919 18.2722L34.2367 17.5211L33.5007 16.2458L32.3514 16.375L30.5809 14.5778L22.4852 9.01957L31.648 18.9394L32.5919 19.5116L33.0863 20.341L33.8002 20.4026L34.8595 21.6694L36.3358 22.4062L36.7132 23.8862L38.9944 24.6321L39.2834 26.1629L42.1564 28.0915L43.6379 28.3578L44.444 29.2432L44.5918 30.2105L46.6272 32.3243L49.3085 33.0754L50.3414 34.9423L52.8001 36.9321L53.891 37.1282L55.0409 38.3445L55.6874 38.3273L56.3613 39.0533L58.0608 39.897L59.7719 40.676L59.4991 41.2986L61.0458 41.6434L62.231 42.6637L63.2217 42.9752L64.2394 44.0321L64.6885 43.777L67.3588 45.9383L64.6665 42.5633L64.4601 41.9213L63.0576 41.6692L62.7102 40.4637L61.7041 39.3422L60.7133 39.0306L60.9681 38.0668L59.0807 36.9202L57.745 35.4014L56.5014 34.7064L55.9749 33.6021L54.6076 33.154L53.9069 31.6826L52.3601 31.3378L51.3125 30.0065L50.3769 28.4928L47.6018 28.2631L47.5972 28.2645ZM41.0017 51.1877L40.0662 50.6059L39.5832 49.7741L38.8704 49.706L37.8284 48.429L36.3613 47.6783L36.0042 46.1953L33.7336 45.4269L33.4672 43.8934L30.6188 41.9381L29.14 41.6567L28.344 40.7642L28.2098 39.7949L26.2043 37.662L23.5319 36.8859L22.5248 35.0102L20.0921 32.9985L19.0031 32.7916L17.8705 31.565L17.2226 31.5775L16.5588 30.8444L14.8689 29.9847L13.1673 29.1896L13.4486 28.5685L11.9046 28.2087L10.7324 27.1774L9.74574 26.8555L8.74282 25.7901L8.2902 26.0401L5.64843 23.8551L8.46467 28.5021L8.6617 29.1469L10.0619 29.4119L10.3911 30.6208L11.382 31.753L12.3687 32.0749L12.1015 33.0343L13.9727 34.1979L15.2886 35.7287L16.5234 36.4355L17.0339 37.5436L18.3967 38.0043L19.0788 39.4812L20.6228 39.841L21.6532 41.1827L22.5676 42.7036L25.3423 42.96L26.0639 44.6464L28.1928 45.3204L29.1326 46.7124L30.9269 47.8623L30.9846 49.2203L32.7469 49.2858L33.1413 50.5731L34.256 50.649L34.4809 51.5678L36.2431 51.6333L37.0158 53.0598L38.562 53.8248L39.2815 55.1061L40.4331 54.9884L42.1784 56.8032L50.0349 61.191L44.7404 56.1096L44.0967 54.6151L41.0039 51.1881L41.0017 51.1877ZM49.0353 42.3554L46.3022 40.2496L43.8452 37.2082L41.3564 36.1337L39.7253 33.8679L36.6944 32.9651L34.6946 30.8132L34.4188 29.9563L32.6668 29.5524L31.9501 28.1694L28.4891 25.9327L27.9218 24.3074L26.8508 24.295L25.7292 23.3751L23.857 23.0385L21.587 20.7469L20.2826 20.2433L18.8225 18.8155L16.9102 18.1137L16.2182 17.1821L14.9606 16.4178L3.6248 7.83533L10.6975 15.6515L11.6698 15.7596L11.9025 16.8555L14.1329 19.0733L15.5205 20.7572L17.4586 21.6215L17.5628 23.4326L19.4036 23.9437L21.2799 25.4463L23.5767 28.1897L24.6937 29.736L27.2762 30.2891L27.162 31.5251L28.0766 32.4078L29.9643 32.6582L32.0318 34.2863L32.5413 35.6321L34.48 36.7879L36.632 39.1473L38.1993 39.8316L38.8556 41.6975L40.9817 41.8106L42.822 44.114L44.7343 44.8157L45.7158 46.5155L47.1139 46.4978L48.2464 47.9578L49.9312 49.337L51.4895 49.6171L52.8295 51.1123L54.7887 51.5534L54.9129 52.6521L56.3931 53.3674L65.5923 59.5043L62.9379 55.171L61.0883 54.1202L59.8667 52.5552L58.7225 52.3495L58.171 50.6358L56.2433 50.0202L54.8037 47.8778L52.9541 46.827L52.5697 44.7854L51.0824 44.6982L49.0077 43.6981L49.0349 42.3576L49.0353 42.3554Z" fill="url(#paint42_linear_1114_890)"/>
<path d="M38.6002 8.00683L40.1487 9.11467C41.1794 9.85369 42.2148 10.5913 43.256 11.3211L43.2814 11.339L43.319 11.3502L44.4422 11.71L46.3964 13.7848L46.4072 13.7979L46.4266 13.8125L48.1021 15.1211L48.1733 15.1783L48.2748 15.1899L49.9509 15.3667L50.4967 16.0697L50.5611 16.1524L50.6745 16.1839L52.033 16.5704L52.8695 17.7771L52.9935 17.9573L53.2291 17.9218L54.9699 17.6655L55.1763 18.9323L55.1877 19.0034L55.2344 19.0629L56.2216 20.2767L56.3138 20.3889L58.4169 20.6179L58.7425 21.675L58.8012 21.8634L59.0238 21.8879L60.292 22.0291L60.1511 22.8622L60.1294 22.9828L60.2301 23.0721L63.3055 25.8732L63.4131 26.5619L63.4197 26.5987L63.4368 26.6262L63.9156 27.395L63.9568 27.4603L64.0317 27.4849L65.1839 27.8543L65.5028 29.4884L65.5098 29.523L65.5324 29.5448L67.0379 31.0875C67.5378 31.6043 68.0481 32.1119 68.5531 32.6252C68.0856 32.0875 67.6227 31.5484 67.1498 31.0164L65.7599 29.4434L65.5227 27.7351L65.5104 27.6439L65.4029 27.6046L64.2452 27.1919L63.8551 26.5057L63.7702 25.7766L63.7618 25.7129L63.7055 25.6583L60.7581 22.8445L60.944 21.8594L60.992 21.5923L59.3085 21.3831L58.9962 20.3129L58.9387 20.1179L56.6798 19.8609L55.8385 18.8157L55.5942 17.3062L55.5426 16.9923L53.3174 17.3328L52.531 16.2152L52.4628 16.1162L52.3388 16.0828L50.9591 15.7036L50.3829 14.9862L50.2946 14.8769L50.1471 14.8638L48.4104 14.705L46.7964 13.4964L44.7531 11.439L44.7063 11.3928L44.6456 11.3752L43.474 11.0401C42.4202 10.3436 41.3584 9.65459 40.2941 8.96736L38.6835 7.92394C38.1491 7.57436 37.6042 7.23402 37.0666 6.89053C37.5813 7.26327 38.0911 7.63955 38.607 8.00583L38.6002 8.00683ZM50.5732 28.2346L47.8295 28.0016L47.1678 26.4972L47.108 26.3641L44.9355 25.7L44.0402 24.416L44.0013 24.3624L43.9419 24.325L42.2653 23.2808L42.1938 22.0604L42.1787 21.7886L41.8606 21.7804L40.3466 21.744L39.9934 20.6686L39.9291 20.4747L38.8228 20.4137L38.6338 19.6992L38.5783 19.4936L38.3347 19.4876L36.7565 19.4529L36.0321 18.1864L35.99 18.1143L35.9128 18.0782L34.4192 17.376L33.6246 16.0345L33.4577 16.0557L32.4301 16.1823L30.7235 14.4834L30.7083 14.4696L30.6945 14.4604C29.3368 13.5425 27.9648 12.6421 26.5987 11.7338C25.2326 10.8255 23.8639 9.919 22.487 9.02211C23.8092 9.97811 25.1399 10.9245 26.4709 11.8687C27.798 12.81 29.1176 13.7566 30.453 14.6883L32.1896 16.4904L32.2694 16.5737L32.3951 16.5607L33.3739 16.4609L34.0182 17.6086L34.0534 17.6705L34.1285 17.7063L35.5939 18.43L36.3305 19.7878L36.4083 19.9308L36.5966 19.9379L38.1129 19.9859L38.2929 20.701L38.3429 20.9012L38.5849 20.9158L39.4651 20.9717L39.8729 22.2704L41.5673 22.3214L41.6271 23.4107L41.6355 23.5479L41.7723 23.6326L43.5189 24.7293L44.5031 26.156L46.6046 26.7984L47.2921 28.3431L47.3724 28.5221L47.5918 28.5393L50.181 28.749L51.0305 30.1159L51.0389 30.1307L51.0476 30.1434L52.105 31.4699L52.1786 31.5632L52.3016 31.5897L53.6927 31.8932L54.3934 33.3401L54.5227 33.3811L55.7704 33.7833L56.2575 34.776L56.295 34.8494L56.3715 34.8899L57.5834 35.5525L58.9076 37.0248L58.9333 37.0539L58.963 37.0725L60.745 38.1312L60.5332 38.9782L60.4958 39.125L60.6649 39.1776L61.6071 39.4648L62.571 40.5143L62.9336 41.6847L62.9571 41.7623L63.0446 41.7781L64.3827 41.9964L64.5807 42.5746L64.5869 42.589L64.5961 42.5996C65.5152 43.7144 66.4372 44.8252 67.3689 45.9312C66.5093 44.7915 65.6397 43.6589 64.7658 42.5256L64.5775 41.8935L64.5595 41.8347L64.4847 41.8212L63.1779 41.5641L62.8772 40.4292L62.8691 40.4011L62.8452 40.3745L61.8564 39.2428L61.8234 39.2057L61.7673 39.1867L60.9531 38.9225L61.2111 37.9904L59.2504 36.7728L57.9541 35.2678L57.9268 35.2362L57.8829 35.2105L56.7276 34.5514L56.2461 33.5152L56.1966 33.4107L56.0677 33.3675L54.8326 32.9565L54.1921 31.5915L54.1315 31.4628L53.9708 31.425L52.5504 31.1007L51.5905 29.8696L50.6658 28.3691L50.5772 28.2242L50.5732 28.2346ZM44.2564 54.5482L44.236 54.5267L41.1874 51.0743L41.1674 51.0507L41.136 51.0295L40.2639 50.4747L39.8192 49.6875L39.7523 49.5688L39.5967 49.5519L39.0172 49.49L38.0614 48.2975L38.0257 48.251L37.9652 48.2201L36.6245 47.5255L36.3044 46.1558L36.269 46.0094L36.0986 45.9521L34.0188 45.2379L33.7842 43.8704L33.7648 43.7579L33.6571 43.6829L30.8142 41.7219L30.7495 41.677L30.6684 41.6624L29.3202 41.4022L28.6658 40.6664L28.541 39.7789L28.5297 39.6945L28.4668 39.6276L26.4563 37.4983L26.3896 37.4285L26.2912 37.3996L23.7583 36.6686L22.8022 34.9133L22.7758 34.8641L22.7318 34.8273L20.2861 32.8265L20.2208 32.7725L20.1376 32.7576L19.15 32.5756L18.0704 31.4342L17.9793 31.3399L17.8466 31.3428L17.3306 31.3568L16.7435 30.7242L16.7101 30.6893L16.6698 30.6687L14.9784 29.8287L13.4119 29.1157L13.6242 28.6335L13.6991 28.4623L13.4871 28.4153L11.9852 28.0786L10.8306 27.0972L10.8059 27.075L10.7768 27.0653L9.81653 26.7681L8.81557 25.7409L8.76005 25.682L8.69351 25.7212L8.29753 25.9502C7.42148 25.2457 6.53535 24.5482 5.65134 23.8511C6.51111 24.5972 7.37087 25.3433 8.23821 26.0841L8.28402 26.1235L8.34009 26.0935L8.72753 25.8874L9.65649 26.9106L9.67688 26.932L9.71201 26.945L10.6583 27.2708L11.787 28.2987L11.819 28.329L11.8703 28.3382L13.1954 28.6653L12.9181 29.2515L13.0804 29.3296L14.7785 30.1441L16.3984 30.9891L17.0251 31.6955L17.1055 31.7878L17.2425 31.7857L17.7523 31.7817L18.7872 32.9262L18.8515 32.9978L18.9582 33.017L19.9581 33.2168L22.2706 35.1491L23.2412 36.9826L23.302 37.0981L23.4466 37.1396L26.0195 37.8934L27.8927 39.8914L28.0136 40.776L28.0256 40.856L28.0843 40.9221L28.8803 41.8146L28.9606 41.9069L29.0908 41.9303L30.4889 42.195L33.1674 44.0286L33.4191 45.4481L33.4485 45.6158L33.6356 45.6783L35.744 46.3798L36.0754 47.7114L36.1048 47.8301L36.2259 47.8919L37.6422 48.6068L38.6593 49.826L38.7393 49.9204L38.8672 49.9323L39.4294 49.98L39.851 50.6873L39.8834 50.7399L39.935 50.7714L40.851 51.3274L43.946 54.6814L44.6019 56.1447L44.6147 56.1715L44.6355 56.1908L47.3348 58.6931C48.2336 59.5285 49.1375 60.3603 50.0442 61.1882C49.1862 60.3224 48.3273 59.4608 47.4592 58.602L44.8887 56.0451L44.2772 54.5675L44.2679 54.5458L44.2564 54.5482ZM49.3272 42.3745L49.3303 42.2594L49.2237 42.178L46.5249 40.0895L44.0972 37.0689L44.0485 37.009L43.9709 36.9751L41.5733 35.9325L40.0004 33.735L39.9353 33.6433L39.8142 33.6059L36.8872 32.7262L34.9912 30.6952L34.7336 29.8973L34.6796 29.7319L34.4847 29.688L32.8908 29.3236L32.2369 28.0697L32.2008 28.0009L32.1297 27.9548L28.7477 25.7812L28.138 24.0482L27.9048 24.0463L26.9568 24.0361L25.9226 23.1941L25.8552 23.1397L25.7677 23.124L23.9972 22.8102L21.7806 20.6015L21.7377 20.5582L21.6799 20.5367L20.4232 20.0617L18.9917 18.6836L18.9523 18.6454L18.9004 18.6272L17.0479 17.9606L16.3893 17.0883L16.3645 17.0549L16.3288 17.0329L15.0731 16.2824C13.1774 14.8631 11.2709 13.4551 9.36177 12.0489L6.4961 9.93263L3.62208 7.82595L6.41579 10.0116L9.21784 12.1876C11.0835 13.6394 12.9538 15.0897 14.8324 16.5305L14.8402 16.5363L14.8501 16.5425L16.064 17.2922L16.7236 18.1958L16.7606 18.247L18.6805 18.9679L20.0903 20.3688L20.1276 20.4067L20.1833 20.4278L21.4223 20.9152L23.636 23.1767L23.7049 23.2469L23.8095 23.2657L25.5913 23.5904L26.6452 24.4582L26.7354 24.5322L26.8584 24.5343L27.6937 24.5466L28.1873 25.9807L28.2178 26.0685L28.3048 26.1242L31.6869 28.3222L32.3645 29.6404L32.4315 29.7703L32.5922 29.8081L34.1469 30.1699L34.3682 30.8635L34.3866 30.9201L34.4309 30.9681L36.4253 33.1257L36.4917 33.1977L36.5922 33.2269L39.5049 34.0885L41.0765 36.2568L41.1297 36.3287L41.2176 36.3667L43.6338 37.4037L46.0517 40.3802L46.0731 40.4085L46.1024 40.4294L48.7365 42.4485L48.717 43.6725L48.7138 43.8254L48.8743 43.9009L50.9552 44.891L51.014 44.9194L51.0774 44.9219L52.3439 44.9872L52.7117 46.8391L52.73 46.9335L54.6368 47.9968L56.0661 50.0862L56.1063 50.1446L56.1773 50.1662L58.0158 50.7391L58.5567 52.3642L58.5869 52.4541L58.6915 52.4729L59.7761 52.6545L60.9822 54.1589L60.9983 54.1796L61.0185 54.1899L62.8649 55.209C63.7649 56.6384 64.6743 58.065 65.5861 59.4898C64.7329 58.0333 63.8749 56.5781 63.0098 55.1261L62.9997 55.1087L62.9778 55.0959L61.1669 54.0387L59.9841 52.4784L59.9505 52.4323L59.8843 52.4204L58.8513 52.2214L58.3464 50.5917L58.3216 50.5094L58.2257 50.4789L56.3773 49.8753L54.9952 47.781L54.9672 47.7404L54.9173 47.7114L53.1724 46.7039L52.8244 44.7533L52.7914 44.5695L52.5672 44.5537L51.1471 44.4607L49.2955 43.5563L49.322 42.3669L49.3272 42.3745Z" fill="#F8FEFF"/>
<path d="M38.4105 8.20401L39.9589 9.31185C40.9897 10.0509 42.0251 10.7885 43.0663 11.5183L43.0917 11.5362L43.1293 11.5474L44.2525 11.9072L46.2067 13.982L46.2175 13.9951L46.2369 14.0097L47.9123 15.3182L47.9836 15.3755L48.0851 15.3871L49.7612 15.5638L50.307 16.2668L50.3714 16.3496L50.4848 16.3811L51.8433 16.7676L52.6798 17.9743L52.8038 18.1545L53.0394 18.119L54.7802 17.8626L54.9866 19.1295L54.998 19.2005L55.0446 19.2601L56.0319 20.4738L56.1241 20.586L58.2272 20.8151L58.5528 21.8721L58.6115 22.0606L58.8341 22.085L60.1023 22.2263L59.9614 23.0594L59.9397 23.18L60.0404 23.2693L63.1158 26.0704L63.2234 26.7591L63.23 26.7959L63.2471 26.8234L63.7259 27.5922L63.7671 27.6574L63.842 27.682L64.9942 28.0515L65.3131 29.6855L65.3201 29.7202L65.3427 29.742L66.8482 31.2847C67.3481 31.8015 67.8584 32.3091 68.3634 32.8224C67.8959 32.2847 67.433 31.7456 66.9601 31.2136L65.5702 29.6406L65.333 27.9323L65.3207 27.8411L65.2132 27.8018L64.0555 27.3891L63.6654 26.7029L63.5805 25.9738L63.5721 25.91L63.5158 25.8554L60.5684 23.0417L60.7543 22.0566L60.8023 21.7895L59.1188 21.5802L58.8065 20.51L58.749 20.3151L56.4901 20.0581L55.6488 19.0128L55.4045 17.5034L55.3529 17.1895L53.1277 17.53L52.3413 16.4124L52.2731 16.3134L52.1491 16.28L50.7694 15.9008L50.1932 15.1834L50.1049 15.0741L49.9574 15.0609L48.2207 14.9022L46.6067 13.6936L44.5634 11.6362L44.5166 11.59L44.4559 11.5724L43.2843 11.2372C42.2305 10.5408 41.1687 9.85177 40.1044 9.16454L38.4937 8.12112C37.9594 7.77154 37.4145 7.4312 36.8769 7.0877C37.3916 7.46045 37.9014 7.83673 38.4173 8.20301L38.4105 8.20401ZM50.3831 28.4339L50.1943 28.4178L47.6391 28.2031L46.9773 26.6987L46.9175 26.5656L44.745 25.9015L43.8497 24.6175L43.8108 24.5639L43.7514 24.5265L42.0748 23.4823L42.0033 22.2619L41.9882 21.9901L41.6702 21.9819L40.1561 21.9455L39.8029 20.8701L39.7386 20.6762L38.6323 20.6152L38.4434 19.9007L38.3878 19.695L38.1442 19.6891L36.566 19.6544L35.8417 18.3878L35.7995 18.3158L35.7223 18.2797L34.2287 17.5775L33.4341 16.236L33.2673 16.2572L32.2396 16.3838L30.533 14.6849L30.5178 14.671L30.5041 14.6619C29.1463 13.744 27.7743 12.8436 26.4082 11.9353C25.0421 11.027 23.6735 10.1205 22.2965 9.2236C23.6188 10.1796 24.9494 11.126 26.2804 12.0702C27.6075 13.0115 28.9271 13.9581 30.2626 14.8898L31.9991 16.6919L32.0789 16.7752L32.2025 16.7618L33.1813 16.662L33.8256 17.8097L33.8607 17.8716L33.9359 17.9074L35.4013 18.6311L36.1378 19.9889L36.2157 20.1319L36.404 20.139L37.9203 20.187L38.1003 20.9021L38.1502 21.1023L38.3922 21.1169L39.2725 21.1728L39.6803 22.4715L41.3746 22.5225L41.4345 23.6119L41.4429 23.749L41.5797 23.8337L43.3262 24.9304L44.3105 26.3571L46.412 26.9995L47.0995 28.5442L47.1797 28.7232L47.3992 28.7404L49.9884 28.9501L50.8379 30.317L50.8463 30.3318L50.855 30.3445L51.9124 31.671L51.9859 31.7643L52.109 31.7908L53.5001 32.0943L54.2008 33.5412L54.3279 33.5819L55.5757 33.9841L56.0628 34.9767L56.1002 35.0502L56.1767 35.0906L57.3887 35.7532L58.7129 37.2255L58.7385 37.2546L58.7682 37.2733L60.5503 38.3319L60.3385 39.1789L60.3011 39.3257L60.4701 39.3783L61.4124 39.6655L62.3763 40.715L62.7389 41.8854L62.7624 41.9631L62.8499 41.9788L64.188 42.1971L64.386 42.7753L64.3922 42.7898L64.4013 42.8003C65.3204 43.9151 66.2424 45.026 67.1741 46.1319C66.3146 44.9922 65.445 43.8596 64.5711 42.7263L64.3828 42.0942L64.3647 42.0354L64.29 42.0219L62.9831 41.7648L62.6825 40.6299L62.6743 40.6018L62.6504 40.5753L61.6617 39.4435L61.6287 39.4064L61.5726 39.3874L60.7584 39.1232L61.0163 38.1911L59.0557 36.9736L57.7594 35.4685L57.732 35.4369L57.6881 35.4112L56.5329 34.7521L56.0514 33.716L56.0019 33.6114L55.873 33.5683L54.6379 33.1572L53.9973 31.7923L53.9367 31.6635L53.776 31.6257L52.3556 31.3015L51.3957 30.0703L50.471 28.5698L50.3825 28.4249L50.3831 28.4339ZM44.0667 54.7453L44.0463 54.7239L40.9977 51.2715L40.9777 51.2479L40.9463 51.2267L40.0741 50.6719L39.6294 49.8847L39.5626 49.766L39.407 49.7491L38.8275 49.6872L37.8717 48.4946L37.836 48.4482L37.7754 48.4173L36.4348 47.7226L36.1147 46.353L36.0793 46.2065L35.9089 46.1492L33.8291 45.4351L33.5945 44.0675L33.5751 43.9551L33.4674 43.8801L30.6245 41.9191L30.5598 41.8741L30.4787 41.8596L29.1305 41.5994L28.476 40.8635L28.3513 39.976L28.34 39.8917L28.2771 39.8248L26.2666 37.6955L26.1998 37.6256L26.1015 37.5968L23.5686 36.8658L22.6125 35.1105L22.5861 35.0613L22.542 35.0245L20.0964 33.0237L20.0311 32.9697L19.9479 32.9547L18.9603 32.7728L17.8807 31.6313L17.7896 31.5371L17.6569 31.54L17.1409 31.554L16.5538 30.9214L16.5204 30.8865L16.4801 30.8659L14.7887 30.0259L13.2222 29.3129L13.4345 28.8306L13.5094 28.6595L13.2974 28.6125L11.7955 28.2758L10.6409 27.2944L10.6162 27.2721L10.5871 27.2625L9.62682 26.9653L8.62587 25.9381L8.57034 25.8792L8.5038 25.9184L8.10783 26.1474C7.23178 25.4429 6.34564 24.7454 5.46164 24.0483C6.3214 24.7944 7.18117 25.5405 8.0485 26.2813L8.09431 26.3207L8.15038 26.2907L8.53783 26.0846L9.46679 27.1078L9.48717 27.1292L9.5223 27.1422L10.4686 27.468L11.5973 28.4959L11.6293 28.5261L11.6805 28.5354L13.0057 28.8625L12.7284 29.4487L12.8907 29.5268L14.5888 30.3413L16.2087 31.1862L16.8354 31.8927L16.9158 31.9849L17.0528 31.9829L17.5626 31.9789L18.5975 33.1234L18.6618 33.195L18.7685 33.2142L19.7684 33.4139L22.0809 35.3463L23.0515 37.1798L23.1123 37.2952L23.2569 37.3368L25.8298 38.0906L27.703 40.0886L27.8239 40.9731L27.8359 41.0531L27.8946 41.1193L28.6905 42.0118L28.7709 42.1041L28.9011 42.1275L30.2992 42.3922L32.9777 44.2257L33.2294 45.6453L33.2588 45.813L33.4458 45.8755L35.5543 46.577L35.8857 47.9086L35.9151 48.0273L36.0362 48.0891L37.4525 48.804L38.4696 50.0232L38.5496 50.1176L38.6775 50.1295L39.2397 50.1772L39.6613 50.8845L39.6937 50.937L39.7453 50.9686L40.6592 51.5242L43.7541 54.8782L44.41 56.3415L44.4229 56.3683L44.4436 56.3876L47.143 58.8899C48.0418 59.7253 48.9456 60.5571 49.8524 61.385C48.9943 60.5192 48.1355 59.6576 47.2673 58.7988L44.6968 56.2419L44.0853 54.7643L44.076 54.7426L44.0667 54.7453ZM49.1371 42.5738L49.1402 42.4587L49.0336 42.3773L46.3348 40.2888L43.9072 37.2683L43.8584 37.2084L43.7808 37.1744L41.3832 36.1319L39.8103 33.9344L39.7453 33.8426L39.6241 33.8053L36.6971 32.9255L34.8011 30.8946L34.5435 30.0966L34.4895 29.9312L34.2946 29.8873L32.7007 29.523L32.0468 28.269L32.0107 28.2003L31.9397 28.1541L28.5576 25.9806L27.9479 24.2476L27.7147 24.2457L26.7667 24.2354L25.7325 23.3934L25.6651 23.3391L25.5776 23.3233L23.8071 23.0095L21.5905 20.8009L21.5476 20.7576L21.4898 20.7361L20.2331 20.2611L18.8016 18.8829L18.7622 18.8447L18.7103 18.8265L16.8578 18.1599L16.1992 17.2876L16.1744 17.2543L16.1387 17.2323L14.883 16.4817C12.9873 15.0624 11.0808 13.6545 9.17168 12.2483L6.306 10.132L3.43199 8.02529L6.2257 10.2109L9.02774 12.387C10.8934 13.8387 12.7637 15.2891 14.6423 16.7298L14.6501 16.7356L14.66 16.7419L15.8739 17.4916L16.5335 18.3952L16.5705 18.4463L18.4904 19.1672L19.9002 20.5682L19.9375 20.606L19.9932 20.6271L21.2322 21.1145L23.4459 23.376L23.5148 23.4462L23.6194 23.465L25.4012 23.7898L26.4551 24.6575L26.5453 24.7315L26.6684 24.7336L27.5036 24.7459L27.9972 26.1801L28.0277 26.2678L28.1147 26.3235L31.4968 28.5215L32.1744 29.8398L32.2414 29.9697L32.4021 30.0074L33.9568 30.3692L34.1781 31.0628L34.1965 31.1195L34.2408 31.1675L36.2352 33.3251L36.3016 33.3971L36.4021 33.4262L39.3148 34.2879L40.8864 36.4562L40.9396 36.528L41.0275 36.5661L43.4437 37.6031L45.8616 40.5796L45.883 40.6079L45.9123 40.6287L48.5464 42.6478L48.5269 43.8719L48.5237 44.0247L48.6842 44.1003L50.7651 45.0903L50.8239 45.1187L50.8873 45.1212L52.1538 45.1865L52.5195 47.038L52.5378 47.1325L54.4446 48.1958L55.8739 50.2852L55.9141 50.3435L55.9851 50.3652L57.8236 50.9381L58.3645 52.5631L58.3946 52.653L58.4992 52.6718L59.5839 52.8535L60.7899 54.3579L60.8061 54.3786L60.8263 54.3889L62.6727 55.4079C63.5727 56.8373 64.482 58.2639 65.3939 59.6888C64.5406 58.2322 63.6827 56.777 62.8176 55.325L62.8075 55.3076L62.7856 55.2948L60.9746 54.2376L59.7918 52.6774L59.7582 52.6313L59.6921 52.6194L58.659 52.4203L58.1542 50.7907L58.1294 50.7084L58.0335 50.6778L56.1851 50.0742L54.8029 47.98L54.775 47.9394L54.7251 47.9104L52.9801 46.9029L52.6322 44.9523L52.5991 44.7684L52.375 44.7526L50.9549 44.6597L49.1032 43.7553L49.1297 42.5658L49.1371 42.5738Z" fill="url(#paint43_radial_1114_890)"/>
<path d="M56.4361 53.3239L54.9538 52.6083L54.8296 51.5096L52.8704 51.0685L51.5283 49.573L49.97 49.2928L48.2852 47.9136L47.1527 46.4536L45.7546 46.4713L44.7731 44.7716L42.8608 44.0698L41.0208 41.7642L38.8947 41.6511L38.2385 39.7852L36.6712 39.101L34.5192 36.7416L32.5805 35.5858L32.0713 34.2378L30.0034 32.6118L28.1158 32.3615L27.2012 31.4788L27.3172 30.2453L24.7325 29.6918L23.6155 28.1456L21.3191 25.3999L19.4428 23.8974L17.6037 23.3889L17.5 21.5756L15.5618 20.7112L14.1742 19.0274L11.9434 16.8117L11.7129 15.7162L10.7385 15.6077L4.97327 9.23414L3.50092 8.11996L10.5715 15.9358L11.5459 16.0442L11.7786 17.1402L14.0094 19.3558L15.3966 21.0418L17.333 21.9036L17.4368 23.7169L19.2776 24.2279L21.1539 25.7305L23.4507 28.474L24.5677 30.0202L27.1502 30.5734L27.036 31.8093L27.951 32.6899L29.8365 32.9399L31.9065 34.5662L32.4136 35.9139L34.3522 37.0696L36.5043 39.429L38.0715 40.1133L38.7274 41.9813L40.8535 42.0944L42.6939 44.3978L44.6062 45.0996L45.5894 46.8019L46.9875 46.7841L48.1204 48.242L49.803 49.6209L51.3635 49.9014L52.7035 51.3965L54.6623 51.8398L54.7865 52.9385L56.2692 53.652L65.5914 59.4974L65.0113 59.0463L56.4361 53.3239Z" fill="url(#paint44_linear_1114_890)"/>
<path d="M42.2182 56.7659L40.4729 54.9511L39.3212 55.0687L38.6017 53.7874L37.0556 53.0225L36.2829 51.596L34.5207 51.5305L34.2958 50.6116L33.1811 50.5358L32.787 49.2463L31.0223 49.1826L30.9649 47.8224L29.1702 46.6747L28.2304 45.2827L26.1015 44.6087L25.38 42.9223L22.6057 42.6637L21.6912 41.1428L20.6605 39.8033L19.1168 39.4413L18.4368 37.9648L17.074 37.5041L16.5615 36.3957L15.3283 35.6914L14.0103 34.1602L12.1391 32.9966L12.4064 32.0372L11.42 31.7131L10.4288 30.5831L10.0995 29.3742L8.69933 29.1092L8.50016 28.464L6.25172 24.753L5.51873 24.1475L8.33535 28.7924L8.53238 29.4372L9.93259 29.7022L10.2639 30.9115L11.2527 32.0433L12.2394 32.3652L11.9722 33.3246L13.8455 34.4886L15.1614 36.0194L16.3963 36.7262L16.9071 37.8321L18.2699 38.2928L18.9516 39.7719L20.4957 40.1318L21.526 41.4734L22.4405 42.9943L25.2151 43.2507L25.9367 44.9371L28.0635 45.6107L29.0032 47.0028L30.7975 48.1526L30.8575 49.511L32.6197 49.5765L33.0141 50.8638L34.1288 50.9397L34.3558 51.8589L36.1181 51.9244L36.8887 53.3505L38.4348 54.1155L39.1539 55.3989L40.3056 55.2813L42.0534 57.0943L50.0328 61.1906L48.8573 60.4723L42.2182 56.7659Z" fill="url(#paint45_linear_1114_890)"/>
<path d="M42.6395 13.8923L43.5373 14.1448C43.6682 13.9927 43.7799 13.8371 43.7799 13.8371L42.8065 13.5642L41.928 12.2477L41.0424 11.4859L40.7719 10.9191L39.9492 10.1996L37.9957 7.90039L36.9372 7.18084L39.7823 10.5277L40.605 11.2471L40.8755 11.8139L41.7611 12.5757L42.6395 13.8923Z" fill="url(#paint46_linear_1114_890)"/>
<path d="M64.7381 29.9669L63.9854 29.14L63.362 28.9301L63.2903 28.3234C63.2903 28.3234 62.3251 28.3478 62.1586 28.269C61.9921 28.1901 61.0473 27.4265 61.0473 27.4265L60.1714 27.616L58.3819 26.2068L58.0199 25.548L57.1123 25.5828L56.8826 24.8499L54.9958 24.3128L53.9504 23.7779L53.8873 23.1239L51.9406 22.2091L50.6076 20.2215L47.2497 17.9256L46.5258 16.6079L45.5438 16.3825L44.5526 15.2147C44.5526 15.2147 43.6509 14.7635 43.3091 14.5441C43.2055 14.6545 43.0982 14.7486 43.0264 14.7557C42.8428 14.7717 44.3874 15.5452 44.3874 15.5452L45.3786 16.713L46.3606 16.9385L47.0845 18.2561L50.4424 20.5521L51.7754 22.5397L53.7221 23.4545L53.7852 24.1085L54.8306 24.6434L56.7174 25.1804L56.9471 25.9134L57.8547 25.8786L58.2167 26.5374L60.0062 27.9466L60.8821 27.7571C60.8821 27.7571 61.8269 28.5207 61.9934 28.5995C62.1599 28.6784 63.1252 28.654 63.1252 28.654L63.1968 29.2606L63.8202 29.4705L64.5729 30.2975L68.5195 32.6036L67.3164 31.7202L64.7402 29.9673L64.7381 29.9669Z" fill="url(#paint47_linear_1114_890)"/>
<path d="M64.7304 43.7401L64.2834 43.9955L63.2658 42.9386L62.275 42.6271L61.0899 41.6068L59.5431 41.2621L59.8163 40.6373L58.1048 39.8604L56.4053 39.0168L55.7297 38.2882L55.0828 38.3076L53.9329 37.0913L52.842 36.8952L50.383 34.9075L49.35 33.0406L46.6687 32.2895L44.6334 30.1757L44.4859 29.2063L43.6798 28.3209L42.1983 28.0545L39.3253 26.126L39.0363 24.5951L36.7573 23.8497L36.3777 22.3693L34.9014 21.6324L33.8421 20.3657L33.1278 20.3062L32.6334 19.4768L31.6899 18.9025L23.6446 10.1954L22.3598 9.31282L31.5225 19.2326L32.4665 19.8048L32.9609 20.6343L33.6748 20.6959L34.7345 21.9605L36.2129 22.6977L36.5903 24.1777L38.8694 24.9232L39.158 26.4561L42.031 28.3847L43.5125 28.651L44.3189 29.5343L44.4664 30.5038L46.5017 32.6176L49.1831 33.3687L50.216 35.2356L52.6747 37.2253L53.7677 37.4218L54.918 38.636L55.5645 38.6188L56.2384 39.3448L57.9379 40.1885L59.649 40.9675L59.3762 41.5901L60.9229 41.9348L62.108 42.9551L63.0984 43.2688L64.1161 44.3257L64.5631 44.0703L67.3584 45.9404L66.1904 44.9232L64.7304 43.7401Z" fill="url(#paint48_linear_1114_890)"/>
</g>
<defs>
<radialGradient id="paint0_radial_1114_890" cx="0" cy="0" r="1" gradientUnits="userSpaceOnUse" gradientTransform="translate(33.4848 31.5457) rotate(-135.555) scale(49.3092 6.12452)">
<stop stop-color="#1D262D"/>
<stop offset="0.48" stop-color="#1D262D" stop-opacity="0.44"/>
<stop offset="0.93" stop-color="#1D262D" stop-opacity="0"/>
</radialGradient>
<radialGradient id="paint1_radial_1114_890" cx="0" cy="0" r="1" gradientUnits="userSpaceOnUse" gradientTransform="translate(34.2322 32.5894) rotate(-136.414) scale(48.8882 6.17418)">
<stop stop-color="#1D262D"/>
<stop offset="0.48" stop-color="#1D262D" stop-opacity="0.44"/>
<stop offset="0.93" stop-color="#1D262D" stop-opacity="0"/>
</radialGradient>
<radialGradient id="paint2_radial_1114_890" cx="0" cy="0" r="1" gradientUnits="userSpaceOnUse" gradientTransform="translate(29.2563 27.7866) rotate(-138.495) scale(49.1668 6.16994)">
<stop stop-color="#1D262D"/>
<stop offset="0.48" stop-color="#1D262D" stop-opacity="0.44"/>
<stop offset="0.93" stop-color="#1D262D" stop-opacity="0"/>
</radialGradient>
<linearGradient id="paint3_linear_1114_890" x1="31.9357" y1="38.6367" x2="41.5341" y2="32.3561" gradientUnits="userSpaceOnUse">
<stop stop-color="#1D262D"/>
<stop offset="0.17" stop-color="#1D262D" stop-opacity="0.77"/>
<stop offset="0.47" stop-color="#1D262D" stop-opacity="0.16"/>
<stop offset="0.54" stop-color="#1D262D" stop-opacity="0"/>
</linearGradient>
<linearGradient id="paint4_linear_1114_890" x1="35.8865" y1="34.933" x2="42.6312" y2="29.3753" gradientUnits="userSpaceOnUse">
<stop stop-color="#1D262D"/>
<stop offset="0.17" stop-color="#1D262D" stop-opacity="0.77"/>
<stop offset="0.47" stop-color="#1D262D" stop-opacity="0.16"/>
<stop offset="0.54" stop-color="#1D262D" stop-opacity="0"/>
</linearGradient>
<linearGradient id="paint5_linear_1114_890" x1="34.2642" y1="36.5736" x2="40.6226" y2="31.5875" gradientUnits="userSpaceOnUse">
<stop stop-color="#1D262D"/>
<stop offset="0.17" stop-color="#1D262D" stop-opacity="0.77"/>
<stop offset="0.47" stop-color="#1D262D" stop-opacity="0.16"/>
<stop offset="0.54" stop-color="#1D262D" stop-opacity="0"/>
</linearGradient>
<linearGradient id="paint6_linear_1114_890" x1="34.754" y1="36.078" x2="42.6308" y2="29.89" gradientUnits="userSpaceOnUse">
<stop stop-color="#1D262D"/>
<stop offset="0.17" stop-color="#1D262D" stop-opacity="0.77"/>
<stop offset="0.47" stop-color="#1D262D" stop-opacity="0.16"/>
<stop offset="0.54" stop-color="#1D262D" stop-opacity="0"/>
</linearGradient>
<linearGradient id="paint7_linear_1114_890" x1="33.4889" y1="60.7275" x2="44.1431" y2="1.45765" gradientUnits="userSpaceOnUse">
<stop stop-color="#1D262D"/>
<stop offset="0.17" stop-color="#1D262D" stop-opacity="0.77"/>
<stop offset="0.47" stop-color="#1D262D" stop-opacity="0.16"/>
<stop offset="0.54" stop-color="#1D262D" stop-opacity="0"/>
</linearGradient>
<linearGradient id="paint8_linear_1114_890" x1="33.458" y1="60.7219" x2="44.1122" y2="1.4521" gradientUnits="userSpaceOnUse">
<stop stop-color="#1D262D"/>
<stop offset="0.17" stop-color="#1D262D" stop-opacity="0.77"/>
<stop offset="0.47" stop-color="#1D262D" stop-opacity="0.16"/>
<stop offset="0.54" stop-color="#1D262D" stop-opacity="0"/>
</linearGradient>
<linearGradient id="paint9_linear_1114_890" x1="33.4086" y1="60.7131" x2="44.0628" y2="1.44323" gradientUnits="userSpaceOnUse">
<stop stop-color="#1D262D"/>
<stop offset="0.17" stop-color="#1D262D" stop-opacity="0.77"/>
<stop offset="0.47" stop-color="#1D262D" stop-opacity="0.16"/>
<stop offset="0.54" stop-color="#1D262D" stop-opacity="0"/>
</linearGradient>
<linearGradient id="paint10_linear_1114_890" x1="33.4889" y1="60.7275" x2="44.1431" y2="1.45765" gradientUnits="userSpaceOnUse">
<stop stop-color="#1D262D"/>
<stop offset="0.17" stop-color="#1D262D" stop-opacity="0.77"/>
<stop offset="0.47" stop-color="#1D262D" stop-opacity="0.16"/>
<stop offset="0.54" stop-color="#1D262D" stop-opacity="0"/>
</linearGradient>
<linearGradient id="paint11_linear_1114_890" x1="33.5281" y1="60.7345" x2="44.1823" y2="1.4647" gradientUnits="userSpaceOnUse">
<stop stop-color="#1D262D"/>
<stop offset="0.17" stop-color="#1D262D" stop-opacity="0.77"/>
<stop offset="0.47" stop-color="#1D262D" stop-opacity="0.16"/>
<stop offset="0.54" stop-color="#1D262D" stop-opacity="0"/>
</linearGradient>
<linearGradient id="paint12_linear_1114_890" x1="33.4341" y1="60.7176" x2="44.0883" y2="1.4478" gradientUnits="userSpaceOnUse">
<stop stop-color="#1D262D"/>
<stop offset="0.17" stop-color="#1D262D" stop-opacity="0.77"/>
<stop offset="0.47" stop-color="#1D262D" stop-opacity="0.16"/>
<stop offset="0.54" stop-color="#1D262D" stop-opacity="0"/>
</linearGradient>
<linearGradient id="paint13_linear_1114_890" x1="33.4371" y1="60.7182" x2="44.0913" y2="1.44834" gradientUnits="userSpaceOnUse">
<stop stop-color="#1D262D"/>
<stop offset="0.17" stop-color="#1D262D" stop-opacity="0.77"/>
<stop offset="0.47" stop-color="#1D262D" stop-opacity="0.16"/>
<stop offset="0.54" stop-color="#1D262D" stop-opacity="0"/>
</linearGradient>
<linearGradient id="paint14_linear_1114_890" x1="33.4889" y1="60.7275" x2="44.1431" y2="1.45765" gradientUnits="userSpaceOnUse">
<stop stop-color="#1D262D"/>
<stop offset="0.17" stop-color="#1D262D" stop-opacity="0.77"/>
<stop offset="0.47" stop-color="#1D262D" stop-opacity="0.16"/>
<stop offset="0.54" stop-color="#1D262D" stop-opacity="0"/>
</linearGradient>
<linearGradient id="paint15_linear_1114_890" x1="33.4889" y1="60.7275" x2="44.1431" y2="1.45765" gradientUnits="userSpaceOnUse">
<stop stop-color="#1D262D"/>
<stop offset="0.17" stop-color="#1D262D" stop-opacity="0.77"/>
<stop offset="0.47" stop-color="#1D262D" stop-opacity="0.16"/>
<stop offset="0.54" stop-color="#1D262D" stop-opacity="0"/>
</linearGradient>
<linearGradient id="paint16_linear_1114_890" x1="33.5073" y1="60.7308" x2="44.1615" y2="1.46096" gradientUnits="userSpaceOnUse">
<stop stop-color="#1D262D"/>
<stop offset="0.17" stop-color="#1D262D" stop-opacity="0.77"/>
<stop offset="0.47" stop-color="#1D262D" stop-opacity="0.16"/>
<stop offset="0.54" stop-color="#1D262D" stop-opacity="0"/>
</linearGradient>
<linearGradient id="paint17_linear_1114_890" x1="33.4889" y1="60.7275" x2="44.1431" y2="1.45765" gradientUnits="userSpaceOnUse">
<stop stop-color="#1D262D"/>
<stop offset="0.17" stop-color="#1D262D" stop-opacity="0.77"/>
<stop offset="0.47" stop-color="#1D262D" stop-opacity="0.16"/>
<stop offset="0.54" stop-color="#1D262D" stop-opacity="0"/>
</linearGradient>
<linearGradient id="paint18_linear_1114_890" x1="33.4252" y1="60.716" x2="44.0794" y2="1.4462" gradientUnits="userSpaceOnUse">
<stop stop-color="#1D262D"/>
<stop offset="0.17" stop-color="#1D262D" stop-opacity="0.77"/>
<stop offset="0.47" stop-color="#1D262D" stop-opacity="0.16"/>
<stop offset="0.54" stop-color="#1D262D" stop-opacity="0"/>
</linearGradient>
<linearGradient id="paint19_linear_1114_890" x1="33.4889" y1="60.7275" x2="44.1431" y2="1.45765" gradientUnits="userSpaceOnUse">
<stop stop-color="#1D262D"/>
<stop offset="0.17" stop-color="#1D262D" stop-opacity="0.77"/>
<stop offset="0.47" stop-color="#1D262D" stop-opacity="0.16"/>
<stop offset="0.54" stop-color="#1D262D" stop-opacity="0"/>
</linearGradient>
<linearGradient id="paint20_linear_1114_890" x1="33.4868" y1="60.7076" x2="44.141" y2="1.43781" gradientUnits="userSpaceOnUse">
<stop stop-color="#1D262D"/>
<stop offset="0.17" stop-color="#1D262D" stop-opacity="0.77"/>
<stop offset="0.47" stop-color="#1D262D" stop-opacity="0.16"/>
<stop offset="0.54" stop-color="#1D262D" stop-opacity="0"/>
</linearGradient>
<linearGradient id="paint21_linear_1114_890" x1="33.4431" y1="60.7193" x2="44.0974" y2="1.44943" gradientUnits="userSpaceOnUse">
<stop stop-color="#1D262D"/>
<stop offset="0.17" stop-color="#1D262D" stop-opacity="0.77"/>
<stop offset="0.47" stop-color="#1D262D" stop-opacity="0.16"/>
<stop offset="0.54" stop-color="#1D262D" stop-opacity="0"/>
</linearGradient>
<linearGradient id="paint22_linear_1114_890" x1="33.4889" y1="60.7275" x2="44.1431" y2="1.45765" gradientUnits="userSpaceOnUse">
<stop stop-color="#1D262D"/>
<stop offset="0.17" stop-color="#1D262D" stop-opacity="0.77"/>
<stop offset="0.47" stop-color="#1D262D" stop-opacity="0.16"/>
<stop offset="0.54" stop-color="#1D262D" stop-opacity="0"/>
</linearGradient>
<linearGradient id="paint23_linear_1114_890" x1="33.4889" y1="60.7275" x2="44.1431" y2="1.45765" gradientUnits="userSpaceOnUse">
<stop stop-color="#1D262D"/>
<stop offset="0.17" stop-color="#1D262D" stop-opacity="0.77"/>
<stop offset="0.47" stop-color="#1D262D" stop-opacity="0.16"/>
<stop offset="0.54" stop-color="#1D262D" stop-opacity="0"/>
</linearGradient>
<linearGradient id="paint24_linear_1114_890" x1="33.4998" y1="60.6669" x2="44.1431" y2="1.45765" gradientUnits="userSpaceOnUse">
<stop stop-color="#1D262D"/>
<stop offset="0.17" stop-color="#1D262D" stop-opacity="0.77"/>
<stop offset="0.47" stop-color="#1D262D" stop-opacity="0.16"/>
<stop offset="0.54" stop-color="#1D262D" stop-opacity="0"/>
</linearGradient>
<linearGradient id="paint25_linear_1114_890" x1="33.4645" y1="60.7231" x2="44.1187" y2="1.45327" gradientUnits="userSpaceOnUse">
<stop stop-color="#1D262D"/>
<stop offset="0.17" stop-color="#1D262D" stop-opacity="0.77"/>
<stop offset="0.47" stop-color="#1D262D" stop-opacity="0.16"/>
<stop offset="0.54" stop-color="#1D262D" stop-opacity="0"/>
</linearGradient>
<linearGradient id="paint26_linear_1114_890" x1="33.4889" y1="60.7275" x2="44.1431" y2="1.45765" gradientUnits="userSpaceOnUse">
<stop stop-color="#1D262D"/>
<stop offset="0.17" stop-color="#1D262D" stop-opacity="0.77"/>
<stop offset="0.47" stop-color="#1D262D" stop-opacity="0.16"/>
<stop offset="0.54" stop-color="#1D262D" stop-opacity="0"/>
</linearGradient>
<linearGradient id="paint27_linear_1114_890" x1="33.4889" y1="60.7275" x2="44.1431" y2="1.45765" gradientUnits="userSpaceOnUse">
<stop stop-color="#1D262D"/>
<stop offset="0.17" stop-color="#1D262D" stop-opacity="0.77"/>
<stop offset="0.47" stop-color="#1D262D" stop-opacity="0.16"/>
<stop offset="0.54" stop-color="#1D262D" stop-opacity="0"/>
</linearGradient>
<linearGradient id="paint28_linear_1114_890" x1="33.4595" y1="60.7222" x2="44.1137" y2="1.45237" gradientUnits="userSpaceOnUse">
<stop stop-color="#1D262D"/>
<stop offset="0.17" stop-color="#1D262D" stop-opacity="0.77"/>
<stop offset="0.47" stop-color="#1D262D" stop-opacity="0.16"/>
<stop offset="0.54" stop-color="#1D262D" stop-opacity="0"/>
</linearGradient>
<linearGradient id="paint29_linear_1114_890" x1="33.4505" y1="60.7206" x2="44.1047" y2="1.45075" gradientUnits="userSpaceOnUse">
<stop stop-color="#1D262D"/>
<stop offset="0.17" stop-color="#1D262D" stop-opacity="0.77"/>
<stop offset="0.47" stop-color="#1D262D" stop-opacity="0.16"/>
<stop offset="0.54" stop-color="#1D262D" stop-opacity="0"/>
</linearGradient>
<linearGradient id="paint30_linear_1114_890" x1="33.4889" y1="60.7275" x2="44.1431" y2="1.45765" gradientUnits="userSpaceOnUse">
<stop stop-color="#1D262D"/>
<stop offset="0.17" stop-color="#1D262D" stop-opacity="0.77"/>
<stop offset="0.47" stop-color="#1D262D" stop-opacity="0.16"/>
<stop offset="0.54" stop-color="#1D262D" stop-opacity="0"/>
</linearGradient>
<linearGradient id="paint31_linear_1114_890" x1="33.4889" y1="60.7275" x2="44.1431" y2="1.45765" gradientUnits="userSpaceOnUse">
<stop stop-color="#1D262D"/>
<stop offset="0.17" stop-color="#1D262D" stop-opacity="0.77"/>
<stop offset="0.47" stop-color="#1D262D" stop-opacity="0.16"/>
<stop offset="0.54" stop-color="#1D262D" stop-opacity="0"/>
</linearGradient>
<linearGradient id="paint32_linear_1114_890" x1="33.4889" y1="60.7275" x2="44.1431" y2="1.45765" gradientUnits="userSpaceOnUse">
<stop stop-color="#1D262D"/>
<stop offset="0.17" stop-color="#1D262D" stop-opacity="0.77"/>
<stop offset="0.47" stop-color="#1D262D" stop-opacity="0.16"/>
<stop offset="0.54" stop-color="#1D262D" stop-opacity="0"/>
</linearGradient>
<linearGradient id="paint33_linear_1114_890" x1="33.4889" y1="60.7275" x2="44.1431" y2="1.45765" gradientUnits="userSpaceOnUse">
<stop stop-color="#1D262D"/>
<stop offset="0.17" stop-color="#1D262D" stop-opacity="0.77"/>
<stop offset="0.47" stop-color="#1D262D" stop-opacity="0.16"/>
<stop offset="0.54" stop-color="#1D262D" stop-opacity="0"/>
</linearGradient>
<linearGradient id="paint34_linear_1114_890" x1="33.493" y1="60.7047" x2="44.139" y2="1.4804" gradientUnits="userSpaceOnUse">
<stop stop-color="#1D262D"/>
<stop offset="0.17" stop-color="#1D262D" stop-opacity="0.77"/>
<stop offset="0.47" stop-color="#1D262D" stop-opacity="0.16"/>
<stop offset="0.54" stop-color="#1D262D" stop-opacity="0"/>
</linearGradient>
<linearGradient id="paint35_linear_1114_890" x1="33.4753" y1="60.725" x2="44.1314" y2="1.44472" gradientUnits="userSpaceOnUse">
<stop stop-color="#1D262D"/>
<stop offset="0.17" stop-color="#1D262D" stop-opacity="0.77"/>
<stop offset="0.47" stop-color="#1D262D" stop-opacity="0.16"/>
<stop offset="0.54" stop-color="#1D262D" stop-opacity="0"/>
</linearGradient>
<linearGradient id="paint36_linear_1114_890" x1="33.4645" y1="60.7231" x2="44.1187" y2="1.45327" gradientUnits="userSpaceOnUse">
<stop stop-color="#1D262D"/>
<stop offset="0.17" stop-color="#1D262D" stop-opacity="0.77"/>
<stop offset="0.47" stop-color="#1D262D" stop-opacity="0.16"/>
<stop offset="0.54" stop-color="#1D262D" stop-opacity="0"/>
</linearGradient>
<linearGradient id="paint37_linear_1114_890" x1="33.4889" y1="60.7275" x2="44.1431" y2="1.45765" gradientUnits="userSpaceOnUse">
<stop stop-color="#1D262D"/>
<stop offset="0.17" stop-color="#1D262D" stop-opacity="0.77"/>
<stop offset="0.47" stop-color="#1D262D" stop-opacity="0.16"/>
<stop offset="0.54" stop-color="#1D262D" stop-opacity="0"/>
</linearGradient>
<linearGradient id="paint38_linear_1114_890" x1="33.4889" y1="60.7275" x2="44.1431" y2="1.45765" gradientUnits="userSpaceOnUse">
<stop stop-color="#1D262D"/>
<stop offset="0.17" stop-color="#1D262D" stop-opacity="0.77"/>
<stop offset="0.47" stop-color="#1D262D" stop-opacity="0.16"/>
<stop offset="0.54" stop-color="#1D262D" stop-opacity="0"/>
</linearGradient>
<linearGradient id="paint39_linear_1114_890" x1="33.4889" y1="60.7275" x2="44.1431" y2="1.45765" gradientUnits="userSpaceOnUse">
<stop stop-color="#1D262D"/>
<stop offset="0.17" stop-color="#1D262D" stop-opacity="0.77"/>
<stop offset="0.47" stop-color="#1D262D" stop-opacity="0.16"/>
<stop offset="0.54" stop-color="#1D262D" stop-opacity="0"/>
</linearGradient>
<linearGradient id="paint40_linear_1114_890" x1="33.48" y1="60.7259" x2="44.1342" y2="1.45606" gradientUnits="userSpaceOnUse">
<stop stop-color="#1D262D"/>
<stop offset="0.17" stop-color="#1D262D" stop-opacity="0.77"/>
<stop offset="0.47" stop-color="#1D262D" stop-opacity="0.16"/>
<stop offset="0.54" stop-color="#1D262D" stop-opacity="0"/>
</linearGradient>
<linearGradient id="paint41_linear_1114_890" x1="33.4486" y1="60.7598" x2="44.1097" y2="1.45166" gradientUnits="userSpaceOnUse">
<stop stop-color="#1D262D"/>
<stop offset="0.17" stop-color="#1D262D" stop-opacity="0.77"/>
<stop offset="0.47" stop-color="#1D262D" stop-opacity="0.16"/>
<stop offset="0.54" stop-color="#1D262D" stop-opacity="0"/>
</linearGradient>
<linearGradient id="paint42_linear_1114_890" x1="76.3367" y1="42.1152" x2="-2.07269" y2="15.3102" gradientUnits="userSpaceOnUse">
<stop stop-color="#1D262D"/>
<stop offset="0.17" stop-color="#1D262D" stop-opacity="0.77"/>
<stop offset="0.47" stop-color="#1D262D" stop-opacity="0.16"/>
<stop offset="0.54" stop-color="#1D262D" stop-opacity="0"/>
</linearGradient>
<radialGradient id="paint43_radial_1114_890" cx="0" cy="0" r="1" gradientUnits="userSpaceOnUse" gradientTransform="translate(38.8217 31.0975) rotate(-79.8095) scale(36.3504 36.7808)">
<stop stop-color="#1D262D"/>
<stop offset="0.48" stop-color="#1D262D" stop-opacity="0.44"/>
<stop offset="0.93" stop-color="#1D262D" stop-opacity="0"/>
</radialGradient>
<linearGradient id="paint44_linear_1114_890" x1="63.6202" y1="40.0411" x2="16.063" y2="26.2878" gradientUnits="userSpaceOnUse">
<stop stop-color="#1D262D"/>
<stop offset="0.17" stop-color="#1D262D" stop-opacity="0.77"/>
<stop offset="0.47" stop-color="#1D262D" stop-opacity="0.16"/>
<stop offset="0.54" stop-color="#1D262D" stop-opacity="0"/>
</linearGradient>
<linearGradient id="paint45_linear_1114_890" x1="78.8405" y1="45.4862" x2="12.5715" y2="26.2735" gradientUnits="userSpaceOnUse">
<stop stop-color="#1D262D"/>
<stop offset="0.17" stop-color="#1D262D" stop-opacity="0.77"/>
<stop offset="0.47" stop-color="#1D262D" stop-opacity="0.16"/>
<stop offset="0.54" stop-color="#1D262D" stop-opacity="0"/>
</linearGradient>
<linearGradient id="paint46_linear_1114_890" x1="281.214" y1="109.191" x2="-134.53" y2="-23.8431" gradientUnits="userSpaceOnUse">
<stop stop-color="#1D262D"/>
<stop offset="0.17" stop-color="#1D262D" stop-opacity="0.77"/>
<stop offset="0.47" stop-color="#1D262D" stop-opacity="0.16"/>
<stop offset="0.54" stop-color="#1D262D" stop-opacity="0"/>
</linearGradient>
<linearGradient id="paint47_linear_1114_890" x1="53.7338" y1="36.9375" x2="-65.3269" y2="4.68169" gradientUnits="userSpaceOnUse">
<stop stop-color="#1D262D"/>
<stop offset="0.17" stop-color="#1D262D" stop-opacity="0.77"/>
<stop offset="0.47" stop-color="#1D262D" stop-opacity="0.16"/>
<stop offset="0.54" stop-color="#1D262D" stop-opacity="0"/>
</linearGradient>
<linearGradient id="paint48_linear_1114_890" x1="58.397" y1="31.9827" x2="19.2397" y2="19.4871" gradientUnits="userSpaceOnUse">
<stop stop-color="#1D262D"/>
<stop offset="0.17" stop-color="#1D262D" stop-opacity="0.77"/>
<stop offset="0.47" stop-color="#1D262D" stop-opacity="0.16"/>
<stop offset="0.54" stop-color="#1D262D" stop-opacity="0"/>
</linearGradient>
</defs>
</svg>
