<svg width="60" height="60" viewBox="0 0 60 60" fill="none" xmlns="http://www.w3.org/2000/svg">
<path d="M30 0C24.0666 0 18.2664 1.75947 13.3329 5.05591C8.39943 8.35235 4.55426 13.0377 2.28363 18.5195C0.0129986 24.0013 -0.581102 30.0333 0.576455 35.8527C1.73401 41.6721 4.59123 47.0176 8.78681 51.2132C12.9824 55.4088 18.3279 58.266 24.1473 59.4236C29.9667 60.5811 35.9987 59.987 41.4805 57.7164C46.9623 55.4458 51.6477 51.6006 54.9441 46.6671C58.2405 41.7336 60 35.9334 60 30C60 26.0603 59.224 22.1593 57.7164 18.5195C56.2088 14.8797 53.999 11.5726 51.2132 8.7868C48.4275 6.00104 45.1203 3.79126 41.4805 2.28361C37.8407 0.775973 33.9397 0 30 0ZM31.827 23.2C31.8272 24.2944 31.5028 25.3642 30.8948 26.2742C30.2869 27.1842 29.4227 27.8934 28.4116 28.3121C27.4004 28.7308 26.2879 28.8402 25.2145 28.6265C24.1412 28.4127 23.1554 27.8854 22.3819 27.1113C21.6083 26.3372 21.0817 25.351 20.8688 24.2775C20.6558 23.2041 20.766 22.0916 21.1855 21.0808C21.6049 20.0699 22.3147 19.2063 23.2251 18.5989C24.1355 17.9916 25.2056 17.668 26.3 17.669C27.7662 17.6703 29.1718 18.2536 30.2081 19.2907C31.2445 20.3278 31.8267 21.7339 31.827 23.2ZM50.87 30.872C49.248 32.966 35.942 40.106 30.631 34.146C30.631 34.146 40.072 38.365 50.87 30.872ZM44.35 28.452C44.35 28.2184 44.4193 27.99 44.5491 27.7958C44.6789 27.6015 44.8634 27.4502 45.0793 27.3608C45.2952 27.2714 45.5327 27.2481 45.7618 27.2938C45.9909 27.3394 46.2013 27.452 46.3665 27.6173C46.5316 27.7825 46.644 27.9931 46.6894 28.2222C46.7349 28.4514 46.7114 28.6889 46.6218 28.9046C46.5323 29.1204 46.3808 29.3048 46.1864 29.4345C45.9921 29.5641 45.7636 29.6332 45.53 29.633C45.217 29.6327 44.9168 29.5082 44.6956 29.2867C44.4743 29.0653 44.35 28.765 44.35 28.452ZM35.357 57.313C34.957 54.475 34.89 45.674 48.392 33.94C51.763 31.011 56.232 24.126 47.05 20.988C42.315 19.37 40.071 18.547 38.103 17.772C37.8422 16.8026 37.2084 15.9757 36.34 15.472C34.5579 14.5968 32.5084 14.4369 30.612 15.025L30.578 15.033C23.678 13.583 15.778 16.233 12.678 21.107C9.77801 25.674 11.124 41.307 7.11301 45.837C3.70289 40.9083 1.9749 35.0104 2.18606 29.0207C2.39721 23.031 4.53625 17.2694 8.28498 12.5931C12.0337 7.91674 17.1919 4.57543 22.9922 3.06617C28.7924 1.55691 34.925 1.96034 40.4776 4.21644C46.0302 6.47255 50.7061 10.4608 53.8099 15.5879C56.9138 20.7151 58.2796 26.7072 57.7042 32.6729C57.1289 38.6387 54.6432 44.2594 50.6168 48.6989C46.5904 53.1384 41.2384 56.1596 35.357 57.313Z" fill="white"/>
<path d="M26.3 19.387C25.5454 19.3858 24.8073 19.6085 24.1793 20.0269C23.5513 20.4453 23.0615 21.0406 22.772 21.7375C22.4824 22.4344 22.4061 23.2015 22.5526 23.9418C22.6992 24.682 23.0621 25.3622 23.5953 25.8961C24.1286 26.4301 24.8083 26.7939 25.5483 26.9414C26.2884 27.0889 27.0556 27.0136 27.7529 26.725C28.4501 26.4363 29.0461 25.9473 29.4653 25.3198C29.8845 24.6924 30.1082 23.9546 30.108 23.2C30.1078 22.1897 29.7066 21.2207 28.9927 20.5059C28.2788 19.791 27.3103 19.3886 26.3 19.387Z" fill="white"/>
</svg>
