<svg width="23" height="27" viewBox="0 0 23 27" fill="none" xmlns="http://www.w3.org/2000/svg">
<path fill-rule="evenodd" clip-rule="evenodd" d="M13.695 9.78299C14.4922 9.38549 15.5065 8.80037 16.5221 7.99868C16.7362 8.44335 16.7597 8.83138 16.6494 9.1447C16.5712 9.36551 16.4239 9.55757 16.2301 9.71037C16.0204 9.8755 15.7584 9.99573 15.4688 10.0607C14.9192 10.1845 14.2777 10.1122 13.695 9.78299ZM13.8333 13.8558L14.8885 14.4653C12.7339 15.6729 12.1481 17.9153 11.4524 20.0993C10.7566 17.9153 10.1708 15.6729 8.01629 14.4653L9.07154 13.8558C9.17362 13.8172 9.26087 13.7473 9.32079 13.6561C9.38071 13.5649 9.41022 13.4571 9.4051 13.348C9.30842 11.3026 9.86071 10.3981 10.6057 9.83016C10.8729 9.62672 11.1646 9.52456 11.4524 9.52456C11.7401 9.52456 12.0318 9.62672 12.2991 9.83016C13.0441 10.3981 13.5964 11.3026 13.4997 13.348C13.4946 13.4571 13.5241 13.5649 13.584 13.6561C13.6439 13.7473 13.7312 13.8172 13.8333 13.8558ZM11.4524 0.5C12.6721 0.532748 13.8949 0.769544 14.9562 1.23019C15.6911 1.5496 16.3768 1.97151 16.9977 2.47602C17.2781 2.70378 17.509 2.92381 17.7633 3.17711C18.4493 3.20083 19.4518 2.43876 19.9172 1.72568C19.1163 4.35163 15.4611 7.45264 12.9306 8.63923C12.9296 8.6388 12.9289 8.63819 12.9281 8.63767C12.474 8.2909 11.9632 8.11751 11.4524 8.11751C10.9415 8.11751 10.4308 8.2909 9.97668 8.63767C9.97589 8.6381 9.9752 8.63888 9.97416 8.63923C7.44359 7.45264 3.78854 4.35163 2.98755 1.72568C3.45289 2.43876 4.45541 3.20083 5.14138 3.17711C5.39581 2.9239 5.6267 2.70378 5.90702 2.47602C6.52793 1.97151 7.21365 1.5496 7.94854 1.23019C9.00986 0.769544 10.2327 0.532748 11.4524 0.5ZM9.20965 9.78299C8.41257 9.38549 7.39816 8.80037 6.38269 7.99868C6.16857 8.44335 6.14512 8.83138 6.25535 9.1447C6.33362 9.36551 6.48094 9.55757 6.67456 9.71037C6.88443 9.8755 7.14642 9.99573 7.43603 10.0607C7.98554 10.1845 8.62704 10.1122 9.20965 9.78299Z" fill="black"/>
<path fill-rule="evenodd" clip-rule="evenodd" d="M17.6344 6.99103C18.1934 6.42684 18.6861 5.80236 19.0822 5.24512L19.2833 5.62376C19.931 6.91954 20.2675 8.2101 20.2675 9.6625L20.2661 11.9672L20.2783 13.162C20.3252 16.0951 20.9599 19.0627 22.3975 21.7784L19.3896 19.353L17.2613 22.8067L15.0254 20.7018L11.4524 26.5L7.87944 20.7019L5.64361 22.8068L3.51531 19.3531L0.507324 21.7785C1.94495 19.0628 2.57959 16.0952 2.62659 13.1621L2.63875 11.9673L2.63736 9.66259C2.63736 8.2101 2.97379 6.91954 3.62163 5.62385L3.82273 5.2452C4.21884 5.80245 4.71136 6.42684 5.27052 6.99112L5.09592 7.35378C4.75671 8.05818 4.64439 8.84579 4.90864 9.59483C5.07898 10.0773 5.38987 10.491 5.79067 10.8069C6.17983 11.1136 6.64039 11.3203 7.12258 11.4289C7.43669 11.4996 7.7567 11.5287 8.07463 11.5188C8.00045 11.9393 7.96805 12.3755 7.96596 12.8199L5.12858 14.4587L7.31812 15.686C7.49312 15.7841 7.65972 15.8966 7.81621 16.0221C9.62136 17.6429 10.7067 22.4376 11.4525 24.7796C12.1984 22.4376 13.2836 17.6429 15.0889 16.0221C15.2453 15.8965 15.4119 15.7841 15.587 15.686L17.7765 14.4587L14.939 12.8199C14.9369 12.3755 14.9045 11.9393 14.8304 11.5188C15.1483 11.5287 15.4683 11.4996 15.7824 11.4289C16.2646 11.3203 16.7252 11.1136 17.1143 10.8069C17.515 10.491 17.826 10.0773 17.9963 9.59483C18.2606 8.84579 18.1482 8.05826 17.8091 7.35378L17.6345 6.99112L17.6344 6.99103Z" fill="black"/>
</svg>
