<svg width="24" height="27" viewBox="0 0 24 27" fill="none" xmlns="http://www.w3.org/2000/svg">
<path fill-rule="evenodd" clip-rule="evenodd" d="M9.06049 1.97018C7.48499 2.77702 6.19601 3.45977 6.19629 3.48754C6.19699 3.55921 9.97753 5.44147 10.1117 5.43688C10.1728 5.43487 10.6156 5.23449 11.0957 4.99164L11.9687 4.55018L12.9222 5.032L13.8756 5.51392L15.4371 4.82415C17.7898 3.78478 18.0342 3.67089 17.9959 3.63262C17.9451 3.58185 17.1012 3.13616 14.8117 1.95117C13.7051 1.37845 12.6312 0.816913 12.425 0.703287C12.2189 0.589661 12.0221 0.498256 11.9877 0.500025C11.9533 0.501795 10.636 1.16337 9.06049 1.97018ZM2.15036 5.48801L0.510283 6.32085V9.97602C0.510283 11.9864 0.531819 13.6312 0.558235 13.6312C0.58456 13.6312 1.39148 13.2873 2.35135 12.867L4.09658 12.1028V8.25004L4.94941 8.70682C5.60659 9.05849 6.26416 9.40945 6.92213 9.75969L8.04199 10.3558L8.54031 10.1342C8.85283 9.99509 9.16472 9.85458 9.47598 9.71272C9.71651 9.60261 10.3069 9.34117 10.788 9.13164C11.2691 8.92202 11.7144 8.71123 11.7776 8.66319C11.8615 8.59937 10.8386 8.04369 7.99431 6.60778C5.85034 5.5254 4.02739 4.64326 3.94332 4.64749C3.85925 4.65172 3.05242 5.0299 2.15036 5.48801ZM18.2915 5.72189C17.1745 6.21763 16.2598 6.64304 16.2588 6.6673C16.2578 6.69154 16.8666 7.04741 17.6117 7.45801C18.3568 7.8687 18.9665 8.22667 18.9665 8.25363C18.9665 8.28053 18.3071 8.5946 17.5014 8.95171C16.6955 9.30872 14.6586 10.2131 12.9748 10.9614L7.33296 13.4684C5.91376 14.0992 4.63451 14.6677 4.4902 14.7319C1.59141 16.022 0.794641 16.38 0.685223 16.4414C0.575196 16.5033 0.550274 16.8627 0.53069 18.6666L0.507324 20.8181L1.97396 21.5527L3.44056 22.2874L5.47423 21.3851C6.59278 20.8889 7.5079 20.4568 7.5079 20.425C7.5079 20.3933 7.3012 20.2609 7.04869 20.1307C6.79606 20.0005 6.27456 19.7122 5.88969 19.49C5.50485 19.2678 5.12111 19.0639 5.03686 19.0368C4.95264 19.0099 4.88495 18.9627 4.88632 18.9319C4.88773 18.9012 5.78326 18.4831 6.87628 18.0026C8.99927 17.0694 10.6239 16.3502 14.1119 14.7995C15.6716 14.1063 17.2315 13.4134 18.7915 12.721C20.1626 12.1126 21.7568 11.402 22.3341 11.142L23.3837 10.6691L23.4071 8.49315L23.4305 6.31725L21.943 5.56664C21.1248 5.15385 20.4255 4.81711 20.3888 4.81834C20.3522 4.81947 19.4084 5.22603 18.2915 5.72189ZM22.9852 13.572C22.766 13.6773 22.333 13.8744 22.023 14.01C21.7131 14.1455 21.1248 14.4065 20.7159 14.5899L19.9724 14.9233L19.9554 16.8336C19.9461 17.8843 19.9067 18.7392 19.868 18.7337C19.78 18.7208 18.3865 18.0182 16.9857 17.2803C15.9747 16.7478 15.9112 16.7267 15.6737 16.8423C15.5363 16.9092 14.7154 17.2712 13.8495 17.6468C12.9835 18.0223 12.2468 18.3541 12.2121 18.3842C12.1776 18.4141 13.9204 19.3428 16.0852 20.4479L20.0211 22.4573L21.7025 21.6022C22.6271 21.132 23.4134 20.703 23.4496 20.6491C23.5311 20.5278 23.5241 13.364 23.4425 13.3737C23.4102 13.3775 23.2044 13.4668 22.9852 13.572ZM13.6746 21.9805C13.3829 22.1038 13.0913 22.2272 12.7999 22.3509C11.9196 22.7252 12.0921 22.7376 11.0449 22.2251C10.3475 21.8838 10.0468 21.7785 9.91631 21.8296C9.81842 21.868 8.97599 22.2406 8.0441 22.6576C7.11226 23.0747 6.31751 23.4159 6.27798 23.4159C5.88701 23.4159 6.53699 23.7976 9.04512 25.0414L11.9866 26.5L13.2242 25.8993C13.9049 25.5689 15.2778 24.9074 16.2752 24.4292C17.2725 23.9509 18.0762 23.5471 18.0612 23.5319C18.046 23.5167 17.2103 23.0948 16.204 22.5944L14.3743 21.6846L13.6746 21.9805Z" fill="white"/>
</svg>
