<svg width="176" height="177" viewBox="0 0 176 177" fill="none" xmlns="http://www.w3.org/2000/svg">
<path d="M50.2505 8.86475C71.3083 -1.10778 95.4652 -2.3067 117.407 5.53174C139.349 13.3702 157.278 29.6039 167.25 50.6617C177.223 71.7194 178.422 95.8763 170.583 117.818C162.745 139.76 146.511 157.689 125.454 167.662L114.173 143.842C128.913 136.861 140.277 124.311 145.764 108.952C151.251 93.5924 150.412 76.6826 143.431 61.9421C136.45 47.2017 123.9 35.8381 108.54 30.3512C93.1812 24.8643 76.2714 25.7035 61.531 32.6843L50.2505 8.86475Z" fill="#FF914D"/>
<path d="M126.542 167.137C107.972 176.246 86.784 178.511 66.7082 173.533C46.6325 168.555 28.9569 156.653 16.7941 139.923L38.1115 124.425C46.6254 136.136 58.9983 144.467 73.0514 147.952C87.1044 151.437 101.936 149.851 114.935 143.475L126.542 167.137Z" fill="#F4D06F"/>
<path d="M16.8607 140.015C5.93185 125.023 0.0296928 106.956 0.000111673 88.4032L26.3557 88.3612C26.3764 101.348 30.5079 113.995 38.1581 124.489L16.8607 140.015Z" fill="#818CFF"/>
<path d="M10.7149 46.2174C19.594 29.9277 33.4022 16.8671 50.1604 8.90749L61.4679 32.7142C49.7372 38.2859 40.0714 47.4284 33.856 58.8312L10.7149 46.2174Z" fill="#FF81D9"/>
<path d="M0.000644542 88.5997C-0.0560392 73.8021 3.62602 59.2299 10.7051 46.2353L33.8492 58.8437C28.8938 67.9399 26.3164 78.1404 26.3561 88.4987L0.000644542 88.5997Z" fill="#81FF98"/>
</svg>
