<svg width="52" height="66" viewBox="0 0 52 66" fill="none" xmlns="http://www.w3.org/2000/svg">
<path fill-rule="evenodd" clip-rule="evenodd" d="M17.2901 10.109C14.5519 12.4323 12.9388 15.9791 12.9647 19.5671C12.98 20.8162 12.9722 22.0674 12.9643 23.3187V23.3188C12.9514 25.3699 12.9385 27.4214 13.0276 29.4646C21.4993 29.4694 29.9746 29.473 38.4474 29.4635C38.4735 27.3292 38.4713 25.1934 38.469 23.0578V23.057V23.057V23.0569V23.0569V23.0569V23.0568C38.4678 21.8927 38.4666 20.7286 38.4699 19.5648C38.5174 16.9217 37.6366 14.2868 36.0613 12.1683C33.7736 9.0705 30.0208 7.10002 26.1648 7.01592C22.9609 6.89273 19.7178 8.00945 17.2901 10.109ZM14.3291 3.47761C19.7461 -0.231398 27.0088 -1.03657 33.1157 1.36612C35.3145 2.18552 37.3285 3.4526 39.1028 4.97915C43.2706 8.58374 45.7764 14.05 45.6935 19.5648C45.7031 20.8309 45.6977 22.0977 45.6923 23.3646V23.3647V23.3648V23.3649V23.365V23.3651C45.6836 25.3779 45.675 27.391 45.7267 29.4019C46.0827 29.4495 46.4435 29.4458 46.8044 29.442H46.8044C47.3326 29.4366 47.8608 29.4312 48.3735 29.5866C50.0354 29.9881 51.3452 31.5748 51.3333 33.2991C51.3342 36.8838 51.3336 40.4685 51.333 44.0532C51.332 50.0616 51.3309 56.07 51.3369 62.0784C51.3677 63.6451 50.2914 65.1183 48.8381 65.663C48.1648 65.9381 47.4351 65.9288 46.7178 65.9198C46.5828 65.918 46.4482 65.9163 46.3145 65.9165C36.1356 65.9064 25.9567 65.9083 15.7778 65.9102C11.7325 65.9109 7.68724 65.9117 3.64198 65.9117C1.74076 65.8904 0.0468631 64.2183 0.00539961 62.3188C0.00696426 56.1343 0.00644273 49.9492 0.00592118 43.7639C0.0056604 40.6712 0.00539961 37.5784 0.00539961 34.4856C0.00724481 34.3238 0.00515474 34.1612 0.00306113 33.9982C-0.00425436 33.4288 -0.011613 32.8561 0.148723 32.3055C0.520956 30.9378 1.71589 29.853 3.09326 29.5511C3.57547 29.4265 4.06854 29.434 4.56183 29.4415H4.56187C4.93066 29.4471 5.29956 29.4527 5.66415 29.4031C5.7162 27.4884 5.70819 25.5716 5.70017 23.6546V23.6545V23.6545V23.6545V23.6544V23.6544C5.6932 21.9874 5.68622 20.3202 5.71876 18.6541C5.95114 12.6005 9.26775 6.79927 14.3291 3.47761ZM29.7039 56.8245C30.9277 56.8245 32.1497 56.1351 32.7514 54.8824C33.3529 53.6298 33.4256 52.0169 32.9079 50.7136C31.7944 47.9102 28.8791 44.945 25.7513 44.945C22.6233 44.945 19.7081 47.9102 18.5945 50.7136C18.0769 52.0169 18.1495 53.6298 18.7511 54.8824C19.3526 56.1352 20.5747 56.8245 21.7984 56.8245C22.6937 56.8245 23.3492 56.5135 23.9732 56.2175C24.5399 55.9487 25.0806 55.6922 25.7512 55.6922C26.3932 55.6922 26.9289 55.9441 27.4949 56.2102C28.129 56.5084 28.8013 56.8245 29.7039 56.8245ZM22.4623 43.5337C20.7083 43.7765 19.0696 42.4061 18.8021 40.4728C18.5345 38.5395 19.7393 36.7755 21.4933 36.5327C23.2472 36.2899 24.886 37.6603 25.1536 39.5936C25.4211 41.5269 24.2162 43.2909 22.4623 43.5337ZM14.4214 46.421C14.9206 47.8809 16.399 48.6974 17.7236 48.2445C19.0481 47.7916 19.7172 46.241 19.218 44.7811C18.7188 43.321 17.2404 42.5045 15.9159 42.9575C14.5913 43.4102 13.9222 44.961 14.4214 46.421ZM29.0404 43.5337C30.7943 43.7765 32.4331 42.4061 32.7006 40.4728C32.9682 38.5395 31.7633 36.7755 30.0094 36.5327C28.2555 36.2899 26.6167 37.6603 26.3491 39.5936C26.0816 41.5269 27.2864 43.2909 29.0404 43.5337ZM37.0814 46.421C36.5822 47.8809 35.1038 48.6974 33.7792 48.2445C32.4547 47.7916 31.7856 46.241 32.2848 44.7811C32.784 43.321 34.2624 42.5045 35.5869 42.9575C36.9115 43.4102 37.5806 44.961 37.0814 46.421Z" fill="#F38B45"/>
</svg>
