<svg width="17" height="14" viewBox="0 0 17 14" fill="none" xmlns="http://www.w3.org/2000/svg">
<path d="M16.7296 0.521045C16.7167 0.460347 16.6877 0.404212 16.6458 0.358476C16.6039 0.312739 16.5504 0.279069 16.4911 0.260965C16.275 0.21787 16.0512 0.233851 15.8435 0.307224C15.8435 0.307224 1.43213 5.48621 0.608716 6.05983C0.431902 6.18421 0.372279 6.25514 0.342468 6.33944C0.200606 6.75063 0.643667 6.92847 0.643667 6.92847L4.35778 8.13841C4.42041 8.15006 4.48491 8.14653 4.5459 8.12813C5.3909 7.59358 13.0473 2.75897 13.4894 2.59757C13.5593 2.57701 13.6107 2.59757 13.5922 2.64692C13.4154 3.26371 6.8013 9.14378 6.76635 9.17873C6.74867 9.19335 6.73478 9.212 6.72583 9.23311C6.71689 9.25422 6.71315 9.27718 6.71495 9.30004L6.36852 12.9268C6.36852 12.9268 6.22254 14.0576 7.35127 12.9268C7.97702 12.3041 8.62865 11.7081 9.30444 11.1401C10.5812 12.0221 11.9566 12.9967 12.5488 13.5045C12.6481 13.6013 12.7659 13.6769 12.8952 13.7269C13.0246 13.7769 13.1627 13.8002 13.3012 13.7954C13.4718 13.7742 13.6319 13.7017 13.7604 13.5875C13.8889 13.4734 13.9797 13.3229 14.0208 13.156C14.0208 13.156 16.6535 2.59346 16.7419 1.17176C16.7491 1.03298 16.7625 0.948687 16.7625 0.845888C16.7662 0.736621 16.7551 0.627355 16.7296 0.521045Z" fill="white"/>
</svg>
