<svg width="33" height="33" viewBox="0 0 33 33" fill="none" xmlns="http://www.w3.org/2000/svg">
<g clip-path="url(#clip0_489_1442)">
<g clip-path="url(#clip1_489_1442)">
<g clip-path="url(#clip2_489_1442)">
<mask id="mask0_489_1442" style="mask-type:luminance" maskUnits="userSpaceOnUse" x="0" y="0" width="33" height="33">
<path d="M0.507812 0.498047H32.5078V32.498H0.507812V0.498047Z" fill="white"/>
</mask>
<g mask="url(#mask0_489_1442)">
<path d="M32.4443 3.05203C32.4192 2.93394 32.3629 2.82473 32.2813 2.73574C32.1997 2.64676 32.0958 2.58125 31.9803 2.54603C31.5599 2.46219 31.1246 2.49328 30.7203 2.63603C30.7203 2.63603 2.68232 12.712 1.08032 13.828C0.736316 14.07 0.620316 14.208 0.562316 14.372C0.286316 15.172 1.14832 15.518 1.14832 15.518L8.37432 17.872C8.49616 17.8947 8.62166 17.8878 8.74032 17.852C10.3843 16.812 25.2803 7.40603 26.1403 7.09203C26.2763 7.05203 26.3763 7.09203 26.3403 7.18803C25.9963 8.38803 13.1283 19.828 13.0603 19.896C13.0259 19.9245 12.9989 19.9607 12.9815 20.0018C12.9641 20.0429 12.9568 20.0876 12.9603 20.132L12.2863 27.188C12.2863 27.188 12.0023 29.388 14.1983 27.188C15.4157 25.9767 16.6835 24.817 17.9983 23.712C20.4823 25.428 23.1583 27.324 24.3103 28.312C24.5035 28.5003 24.7328 28.6475 24.9844 28.7448C25.236 28.8421 25.5047 28.8874 25.7743 28.878C26.1062 28.8367 26.4177 28.6957 26.6676 28.4736C26.9176 28.2515 27.0943 27.9587 27.1743 27.634C27.1743 27.634 32.2963 7.08403 32.4683 4.31803C32.4823 4.04803 32.5083 3.88403 32.5083 3.68403C32.5155 3.47145 32.494 3.25886 32.4443 3.05203Z" fill="black"/>
</g>
</g>
</g>
</g>
<defs>
<clipPath id="clip0_489_1442">
<rect width="32" height="32" fill="white" transform="translate(0.507324 0.5)"/>
</clipPath>
<clipPath id="clip1_489_1442">
<rect width="32" height="32" fill="white" transform="translate(0.507324 0.5)"/>
</clipPath>
<clipPath id="clip2_489_1442">
<rect width="32" height="32" fill="white" transform="translate(0.507324 0.5)"/>
</clipPath>
</defs>
</svg>
